<?xml version="1.0" encoding="UTF-8"?>
<svg width="102px" height="36px" viewBox="0 0 102 36" version="1.1" xmlns="http://www.w3.org/2000/svg" xmlns:xlink="http://www.w3.org/1999/xlink">
    <title>fri-son</title>
    <g id="Page-1" stroke="none" stroke-width="1" fill="none" fill-rule="evenodd">
        <g id="maquette" transform="translate(-316.000000, -4746.000000)" fill="#FFFFFF" fill-rule="nonzero">
            <g id="footer" transform="translate(0.500000, 4473.745671)">
                <g id="partenaires" transform="translate(165.000000, 258.292308)">
                    <g id="fri-son" transform="translate(151.261135, 14.779037)">
                        <g id="Group">
                            <path d="M68.3419183,13.7085552 C63.6719709,13.7085552 59.7552408,16.7214245 58.2488062,20.889227 C57.4955888,18.730004 56.0393687,16.8218535 54.1312181,15.5664913 C52.574569,14.511987 51.5702792,12.75448 51.5702792,10.7459004 C51.5702792,7.5823877 54.1814326,5.02144881 57.3449454,5.02144881 L57.3449454,0.0502144881 C51.4196358,0.0502144881 46.5990449,4.82059085 46.5990449,10.7459004 C46.5990449,14.4617726 48.456981,17.7257143 51.3192068,19.6338648 L51.3192068,19.6338648 C52.8758559,20.6883691 53.8801457,22.4458762 53.8801457,24.4544557 C53.8801457,27.6179684 51.2689923,30.1789073 48.1054796,30.1789073 C44.9419668,30.1789073 42.3810279,27.6179684 42.3810279,24.4544557 L37.4097936,24.4544557 C37.4097936,30.3295508 42.2303845,35.1501416 48.1054796,35.1501416 C52.775427,35.1501416 56.7423715,32.1874868 58.2488062,28.0196843 C59.7050263,32.1372724 63.6719709,35.1501416 68.3419183,35.1501416 C74.2672278,35.1501416 79.0878187,30.3797653 79.0878187,24.4544557 C79.0878187,18.5291461 74.2672278,13.7085552 68.3419183,13.7085552 M68.3419183,30.1789073 C65.1784055,30.1789073 62.6174666,27.6179684 62.6174666,24.4544557 C62.6174666,21.2909429 65.1784055,18.6797896 68.3419183,18.6797896 C71.505431,18.6797896 74.1165844,21.2909429 74.1165844,24.4544557 C74.1165844,27.6179684 71.505431,30.1789073 68.3419183,30.1789073" id="Shape"></path>
                            <path d="M95.5581708,34.6479968 L100.57962,34.6479968 L100.57962,24.4544557 C100.57962,18.5291461 95.7088142,13.7085552 89.8337191,13.7085552 C83.9084096,13.7085552 79.0878187,18.5291461 79.0878187,24.4544557 L79.0878187,34.6982113 L84.059053,34.6982113 L84.059053,24.4544557 C84.059053,21.2909429 86.6702064,18.6797896 89.8337191,18.6797896 C92.9972319,18.6797896 95.5581708,21.2909429 95.5581708,24.4544557 L95.5581708,34.6479968 L95.5581708,34.6479968 Z" id="Path"></path>
                            <path d="M28.9737596,13.2566248 L28.9737596,13.2566248 C25.6596034,13.2566248 22.7471631,14.7630595 20.7385836,17.1231404 C18.7802185,14.7630595 15.8175637,13.2566248 12.5034075,13.2566248 L11.1476163,13.2566248 L11.1476163,10.695686 C11.1476163,7.53217321 13.7587697,4.97123432 16.9222825,4.97123432 L16.9222825,0 C11.0974019,0 6.22659652,4.77037637 6.22659652,10.695686 L6.22659652,13.2566248 L0,13.2566248 L0,18.2278592 L6.22659652,18.2278592 L6.22659652,34.7484257 L11.1978308,34.7484257 L11.1978308,18.2278592 L12.553622,18.2278592 C15.7171348,18.2278592 18.2780737,20.7887981 18.2780737,23.9523108 L18.2780737,34.6982113 L23.249308,34.6982113 L23.249308,23.9523108 C23.249308,20.7887981 25.8102469,18.2278592 28.9737596,18.2278592 L30.3295508,18.2278592 L30.3295508,34.6982113 L35.3007851,34.6982113 L35.3007851,13.2566248 L28.9737596,13.2566248 Z" id="Path"></path>
                            <polygon id="Path" points="45.2934682 13.2566248 37.4097936 18.2278592 37.4097936 23.2995225 45.2934682 18.4287171"></polygon>
                        </g>
                        <rect id="Rectangle" x="30.3295508" y="0.0502144881" width="4.97123432" height="11.8506192"></rect>
                    </g>
                </g>
            </g>
        </g>
    </g>
</svg>