<?xml version="1.0" encoding="UTF-8"?>
<svg width="46px" height="46px" viewBox="0 0 46 46" version="1.1" xmlns="http://www.w3.org/2000/svg" xmlns:xlink="http://www.w3.org/1999/xlink">
    <title>logo-instagram</title>
    <g id="Page-1" stroke="none" stroke-width="1" fill="none" fill-rule="evenodd">
        <g id="maquette" transform="translate(-1126.000000, -4733.000000)" fill="#FFFFFF">
            <g id="footer" transform="translate(0.500000, 4473.745671)">
                <g id="reseaux" transform="translate(1021.493034, 258.292308)">
                    <path d="M122.828093,13.2972639 C121.416381,13.9246952 120.190955,14.7677927 119.151777,15.8265727 C118.112597,16.885369 117.279306,18.1009824 116.651876,19.4734944 C116.063661,20.8852065 115.769559,22.3949354 115.769559,24.0027137 C115.769559,25.6105083 116.063661,27.1202372 116.651876,28.5319494 C117.279306,29.9436615 118.112597,31.1788978 119.151777,32.2376844 C120.190955,33.2964709 121.416381,34.1199586 122.828093,34.7081733 C124.239822,35.3356029 125.749535,35.649312 127.357329,35.649312 C128.965124,35.649312 130.474836,35.3356029 131.886565,34.7081733 C133.298277,34.1199586 134.523707,33.2964709 135.562887,32.2376844 C136.602067,31.1788978 137.435348,29.9436615 138.062779,28.5319494 C138.650994,27.1202372 138.945093,25.6105083 138.945093,24.0027137 C138.945093,22.3949354 138.650994,20.8852065 138.062779,19.4734944 C137.435348,18.1009824 136.602067,16.885369 135.562887,15.8265727 C134.523707,14.7677927 133.298277,13.9246952 131.886565,13.2972639 C130.474836,12.7090492 128.965124,12.4149499 127.357329,12.4149499 C125.749535,12.4149499 124.239822,12.7090492 122.828093,13.2972639 Z M122.034013,29.3260303 C120.563477,27.8555016 119.828219,26.0810736 119.828219,24.0027137 C119.828219,21.9243701 120.563477,20.1499421 122.034013,18.6793971 C123.504558,17.2088684 125.278969,16.473604 127.357329,16.473604 C129.435689,16.473604 131.210101,17.2088684 132.680646,18.6793971 C134.151174,20.1499421 134.886439,21.9243701 134.886439,24.0027137 C134.886439,26.0810736 134.151174,27.8555016 132.680646,29.3260303 C131.210101,30.7965737 129.435689,31.5318299 127.357329,31.5318299 C125.278969,31.5318299 123.504558,30.7965737 122.034013,29.3260303 Z M142.121449,12.0032012 C142.121449,12.7482819 141.85675,13.3854969 141.327352,13.9148951 C140.79797,14.444277 140.160739,14.7089761 139.415674,14.7089761 C138.670594,14.7089761 138.033379,14.444277 137.503981,13.9148951 C136.974582,13.3854969 136.7099,12.7482819 136.7099,12.0032012 C136.7099,11.2581368 136.974582,10.6209055 137.503981,10.0915074 C138.033379,9.5621255 138.670594,9.29742643 139.415674,9.29742643 C140.160739,9.29742643 140.79797,9.5621255 141.327352,10.0915074 C141.85675,10.6209055 142.121449,11.2581368 142.121449,12.0032012 Z M148.768229,9.23860983 C148.180014,7.70924823 147.317316,6.37598535 146.180103,5.23877234 C145.04289,4.10155933 143.729228,3.23884545 142.239082,2.6506307 L142.180266,2.6506307 C141.356768,2.33691508 140.484255,2.08203234 139.562724,1.88596618 C138.641194,1.68988375 137.690247,1.59185067 136.7099,1.59185067 L136.651067,1.59185067 C135.474637,1.51343397 134.396273,1.46441743 133.41591,1.44480105 C132.435547,1.42520095 130.416052,1.41538462 127.357329,1.41538462 C124.298606,1.41538462 122.279111,1.42520095 121.298748,1.44480105 C120.318391,1.46441743 119.240013,1.51343397 118.063585,1.59185067 C117.083226,1.59185067 116.122491,1.68988375 115.181347,1.88596618 C114.240204,2.08203234 113.338288,2.33691508 112.475573,2.6506307 L112.593215,2.6506307 C111.063857,3.23884545 109.730591,4.10155933 108.593376,5.23877234 C107.456162,6.37598535 106.593459,7.68964813 106.005245,9.17979324 L105.946423,9.23860983 C105.632709,10.0621072 105.387623,10.9346212 105.211159,11.8561516 C105.034694,12.7776821 104.926857,13.7286127 104.887642,14.7089761 C104.848428,15.924622 104.819018,17.0128022 104.799411,17.9735492 C104.779803,18.9342961 104.77,20.9440068 104.77,24.0027137 C104.77,27.1006534 104.779803,29.1299642 104.799411,30.0907111 C104.819018,31.051463 104.848428,32.1396432 104.887642,33.3552875 C104.926857,34.2964295 105.034694,35.2277568 105.211159,36.1492921 C105.387623,37.0708291 105.632709,37.9629415 105.946423,38.8256554 C106.573853,40.3550137 107.456162,41.6882799 108.593376,42.8254945 C109.730591,43.9627108 111.024644,44.8254116 112.475573,45.4136265 L112.593215,45.4136265 C113.377501,45.7665554 114.2304,46.0410514 115.151936,46.237123 C116.073473,46.4331945 117.024405,46.5508357 118.004763,46.59005 L118.063585,46.59005 C119.279228,46.6292643 120.367408,46.6586746 121.328165,46.6782817 C122.288912,46.6978889 124.298606,46.7076923 127.357329,46.7076923 C130.416052,46.7076923 132.435547,46.6978889 133.41591,46.6782817 C134.396273,46.6586746 135.494254,46.6292643 136.7099,46.59005 C137.690247,46.5508357 138.650994,46.442998 139.592124,46.2665335 C140.533271,46.0900691 141.435185,45.8253765 142.297899,45.4724477 L142.180266,45.531269 C143.709627,44.9038397 145.04289,44.0313339 146.180103,42.9137275 C147.317316,41.7961195 148.180014,40.4922633 148.768229,39.0021198 L148.768229,38.8844769 C149.121161,38.0217613 149.38586,37.1296506 149.562326,36.2081136 C149.738792,35.2865766 149.827009,34.355251 149.827009,33.4141074 C149.866225,32.1984646 149.895642,31.1102845 149.915242,30.1495277 C149.934858,29.1887808 149.944658,27.1790864 149.944658,24.1203632 C149.944658,21.06164 149.944658,19.0421456 149.944658,18.0617822 C149.944658,17.0814189 149.905442,16.003055 149.827009,14.8266255 C149.827009,13.8070457 149.728976,12.8168986 149.53291,11.8561516 C149.336843,10.8954047 149.062344,9.98367425 148.709412,9.12096037 L148.768229,9.23860983 Z M145.709538,33.1788231 C145.709538,33.9238957 145.640905,34.6591519 145.503656,35.3846178 C145.366406,36.1100821 145.16054,36.8061251 144.886041,37.472768 L144.944857,37.4139481 C144.552709,38.394305 143.98411,39.2570074 143.239046,40.0020784 C142.493965,40.7471509 141.650884,41.2961427 140.709737,41.6490715 L140.650921,41.707893 C140.023489,41.9431789 139.356858,42.1294434 138.650994,42.2666946 C137.945129,42.4039441 137.219681,42.4725689 136.474617,42.4725689 C135.258971,42.5117821 134.190391,42.5411921 133.26886,42.5608003 C132.347314,42.5804069 130.357219,42.5902102 127.298513,42.5902102 C124.239789,42.5902102 122.249695,42.5902102 121.328165,42.5902102 C120.406623,42.5902102 119.338049,42.550997 118.122405,42.4725689 C117.338119,42.4725689 116.593058,42.4039441 115.887202,42.2666946 C115.181344,42.1294434 114.495103,41.9235723 113.82846,41.6490715 L113.887281,41.707893 C112.906923,41.3157493 112.044222,40.7471509 111.29915,40.0020784 C110.554079,39.2570074 109.985479,38.4139116 109.593337,37.472768 L109.593337,37.4139481 C109.358051,36.7865185 109.171785,36.1198854 109.034535,35.4140277 C108.897285,34.7081701 108.828661,33.9827171 108.828661,33.2376446 L108.828661,33.1788231 C108.750233,32.0023936 108.711018,30.9436233 108.711018,30.0024781 C108.711018,29.0613313 108.711018,27.081037 108.711018,24.0615466 C108.711018,21.0028234 108.711018,19.0127291 108.711018,18.0911987 C108.711018,17.1696519 108.750233,16.1010881 108.828661,14.8854421 C108.828661,14.1011612 108.897285,13.3462967 109.034535,12.6208324 C109.171785,11.8953518 109.377657,11.1993202 109.652156,10.5326725 L109.593337,10.650322 C109.985479,9.63074215 110.554079,8.74842816 111.29915,8.00336375 C112.044222,7.25828305 112.906923,6.70930107 113.887281,6.35636896 C114.514711,6.12108632 115.181344,5.93482022 115.887202,5.79757065 C116.593058,5.66032109 117.338119,5.57208806 118.122405,5.53287157 C119.298834,5.49365509 120.357605,5.46425493 121.298748,5.44463855 C122.239895,5.42503844 124.239789,5.41523839 127.298513,5.41523839 C130.357219,5.41523839 132.347314,5.42503844 133.26886,5.44463855 C134.190391,5.46425493 135.258971,5.49365509 136.474617,5.53287157 C137.219681,5.57208806 137.945129,5.66032109 138.650994,5.79757065 C139.356858,5.93482022 140.043089,6.12108632 140.709737,6.35636896 L140.650921,6.35636896 C141.631268,6.74851756 142.493965,7.30731587 143.239046,8.03278018 C143.98411,8.7582445 144.552709,9.61114204 144.944857,10.5914891 L144.944857,10.650322 C145.18014,11.2385367 145.366406,11.8953518 145.503656,12.6208324 C145.640905,13.3462967 145.709538,14.0815448 145.709538,14.8266255 C145.748755,16.003055 145.778155,17.0618188 145.797771,18.0029656 C145.817371,18.9441125 145.827171,20.9440068 145.827171,24.0027137 C145.827171,27.0614369 145.827171,29.0515312 145.827171,29.9730617 C145.827171,30.8946052 145.807571,31.9631804 145.768355,33.1788231 L145.709538,33.1788231 Z" id="logo-instagram"></path>
                </g>
            </g>
        </g>
    </g>
</svg>