<?xml version="1.0" encoding="UTF-8"?>
<svg width="165px" height="36px" viewBox="0 0 165 36" version="1.1" xmlns="http://www.w3.org/2000/svg" xmlns:xlink="http://www.w3.org/1999/xlink">
    <title>eikonica</title>
    <g id="Page-1" stroke="none" stroke-width="1" fill="none" fill-rule="evenodd">
        <g id="maquette" transform="translate(-48.000000, -33.000000)" fill="#FFFFFF" fill-rule="nonzero">
            <g id="header" transform="translate(0.500000, 33.500000)">
                <g id="eikonica" transform="translate(47.500000, 0.000000)">
                    <path d="M21.2792297,17.042641 L21.2792297,22.6753783 C21.2792297,23.7345254 20.4126547,24.5529574 19.4016506,24.5529574 L5.96973865,24.5529574 C4.91059147,24.5529574 4.09215956,25.4195323 4.09215956,26.4305365 L4.09215956,27.778542 C4.09215956,28.2599725 4.28473177,28.741403 4.62173315,29.1265475 L6.25859697,30.7634113 C6.59559835,31.1004127 7.07702889,31.2929849 7.60660248,31.2929849 L14.4429161,31.2929849 C14.9243466,31.2929849 15.4057772,31.1004127 15.7909216,30.7634113 L17.2352132,29.3191197 C17.957359,28.5969739 19.1609354,28.5969739 19.8830812,29.3191197 L19.8830812,29.3191197 C20.605227,30.0412655 20.605227,31.2448418 19.8830812,31.9669876 L17.4759285,34.3741403 C17.1389271,34.7111417 16.6574966,34.9037139 16.127923,34.9037139 L5.77716644,34.9037139 C5.2957359,34.9037139 4.81430536,34.7111417 4.42916094,34.3741403 L0.52957359,30.474553 C0.192572215,30.1375516 0,29.656121 0,29.1746905 L0,17.042641 C0,16.5612105 0.192572215,16.0797799 0.52957359,15.6946355 L4.42916094,11.7950481 C4.76616231,11.4580468 5.24759285,11.2654746 5.77716644,11.2654746 L15.4539202,11.2654746 C15.9353508,11.2654746 16.4167813,11.4580468 16.8019257,11.7950481 L20.7015131,15.6946355 C21.0385144,16.0797799 21.2792297,16.5612105 21.2792297,17.042641 Z M17.1870702,19.1127923 L17.1870702,18.3906465 C17.1870702,17.909216 16.9944979,17.4277854 16.6574966,17.042641 L14.9724897,15.4057772 C14.6354883,15.0687758 14.1540578,14.8762036 13.6244842,14.8762036 L7.60660248,14.8762036 C7.12517194,14.8762036 6.6437414,15.0687758 6.25859697,15.4057772 L4.62173315,17.042641 C4.28473177,17.3796424 4.09215956,17.8610729 4.09215956,18.3906465 L4.09215956,19.1127923 C4.09215956,20.1719395 4.95873453,20.9903714 5.96973865,20.9903714 L15.3094911,20.9903714 C16.3204952,21.0385144 17.1870702,20.1719395 17.1870702,19.1127923 Z" id="Shape"></path>
                    <path d="M28.2118294,0.385144429 L28.2118294,0.385144429 C29.3191197,0.385144429 30.2338377,1.29986245 30.2338377,2.40715268 L30.2338377,3.61072902 C30.2338377,4.71801926 29.3191197,5.63273728 28.2118294,5.63273728 L28.2118294,5.63273728 C27.1045392,5.63273728 26.1898212,4.71801926 26.1898212,3.61072902 L26.1898212,2.40715268 C26.1416781,1.29986245 27.0563961,0.385144429 28.2118294,0.385144429 Z M28.2118294,11.2654746 L28.2118294,11.2654746 C29.3191197,11.2654746 30.2338377,12.1801926 30.2338377,13.2874828 L30.2338377,32.8817056 C30.2338377,33.9889959 29.3191197,34.9037139 28.2118294,34.9037139 L28.2118294,34.9037139 C27.1045392,34.9037139 26.1898212,33.9889959 26.1898212,32.8817056 L26.1898212,13.2874828 C26.1416781,12.1801926 27.0563961,11.2654746 28.2118294,11.2654746 Z" id="Shape"></path>
                    <path d="M51.0316369,34.3741403 L43.6176066,26.8156809 C42.4621733,25.6121045 40.4401651,26.4786795 40.4401651,28.1155433 L40.4401651,33.1224209 C40.4401651,34.133425 39.6217331,34.9518569 38.610729,34.9518569 L38.2255846,34.9518569 C37.2145805,34.9518569 36.3961486,34.133425 36.3961486,33.1224209 L36.3961486,1.82943604 C36.3961486,0.818431912 37.2145805,0 38.2255846,0 L38.610729,0 C39.6217331,0 40.4401651,0.818431912 40.4401651,1.82943604 L40.4401651,17.7166437 C40.4401651,19.3535076 42.4621733,20.2200825 43.6176066,19.0165062 L50.6946355,11.7950481 C51.0316369,11.4580468 51.5130674,11.2173315 51.9944979,11.2173315 L51.9944979,11.2173315 C53.6313618,11.2173315 54.4497937,13.1911967 53.2943604,14.34663 L46.3617607,21.4718019 C45.6396149,22.1939477 45.6396149,23.349381 46.3617607,24.0715268 L54.0165062,31.7744154 C55.1719395,32.9298487 54.3535076,34.9037139 52.7166437,34.9037139 L52.3796424,34.9037139 C51.8500688,34.9518569 51.4167813,34.7592847 51.0316369,34.3741403 Z" id="Path"></path>
                    <path d="M79.9656121,18.1980743 L79.9656121,28.0192572 C79.9656121,29.2709766 79.4841816,30.4264099 78.6176066,31.2929849 L76.3548831,33.5557084 C75.4883081,34.4222834 74.2847318,34.9037139 73.0811554,34.9037139 L65.6671252,34.9037139 C64.4154058,34.9037139 63.2599725,34.4222834 62.3933975,33.5557084 L60.130674,31.2929849 C59.264099,30.4264099 58.7826685,29.2228336 58.7826685,28.0192572 L58.7826685,18.1980743 C58.7826685,16.9463549 59.264099,15.7909216 60.130674,14.9243466 L62.3933975,12.6616231 C63.2599725,11.7950481 64.4635488,11.3136176 65.6671252,11.3136176 L73.0811554,11.3136176 C74.3328748,11.3136176 75.4883081,11.7950481 76.3548831,12.6616231 L78.6176066,14.9243466 C79.4841816,15.7909216 79.9656121,16.9463549 79.9656121,18.1980743 Z M75.9215956,26.6712517 L75.9215956,19.5460798 C75.9215956,18.2943604 75.4401651,17.1389271 74.5735901,16.2723521 L74.5735901,16.2723521 C73.6588721,15.4057772 72.5034388,14.9243466 71.2517194,14.9243466 L67.4484182,14.9243466 C66.1966988,14.9243466 65.0412655,15.4057772 64.1746905,16.2723521 L64.1746905,16.2723521 C63.3081155,17.1389271 62.826685,18.3425034 62.826685,19.5460798 L62.826685,26.6712517 C62.826685,27.9229711 63.3081155,29.0784044 64.1746905,29.9449794 L64.1746905,29.9449794 C65.0412655,30.8115543 66.2448418,31.2929849 67.4484182,31.2929849 L71.2517194,31.2929849 C72.5034388,31.2929849 73.6588721,30.8115543 74.525447,29.9449794 L74.525447,29.9449794 C75.4401651,29.0784044 75.9215956,27.8748281 75.9215956,26.6712517 Z" id="Shape"></path>
                    <path d="M105.674003,16.0316369 L105.674003,33.5557084 C105.674003,34.3259972 105.048143,34.9518569 104.277854,34.9518569 L102.977992,34.9518569 C102.207703,34.9518569 101.581843,34.3259972 101.581843,33.5557084 L101.581843,17.5722146 C101.581843,17.1870702 101.437414,16.8500688 101.148556,16.5612105 L99.8968363,15.3094911 C99.656121,15.0687758 99.2709766,14.8762036 98.8858322,14.8762036 L94.3603851,14.8762036 C93.9752407,14.8762036 93.6382393,15.0206327 93.349381,15.3094911 L89.6423659,19.0165062 C89.4016506,19.2572215 89.2090784,19.6423659 89.2090784,20.0275103 L89.2090784,33.6038514 C89.2090784,34.3741403 88.5832187,35 87.8129298,35 L86.5130674,35 C85.7427785,35 85.1169188,34.3741403 85.1169188,33.6038514 L85.1169188,12.6616231 C85.1169188,11.8913343 85.7427785,11.2654746 86.5130674,11.2654746 L87.4759285,11.2654746 C88.2462173,11.2654746 88.823934,11.8431912 88.872077,12.6134801 L88.872077,12.6134801 C88.9202201,13.8170564 90.4126547,14.394773 91.2792297,13.5281981 L93.1568088,11.650619 C93.3975241,11.4099037 93.7826685,11.2173315 94.1678129,11.2173315 L100.859697,11.2173315 C101.244842,11.2173315 101.581843,11.3617607 101.870702,11.650619 L105.240715,15.0206327 C105.529574,15.3094911 105.674003,15.6464924 105.674003,16.0316369 Z" id="Path"></path>
                    <path d="M113.473177,0.385144429 L113.473177,0.385144429 C114.580468,0.385144429 115.495186,1.29986245 115.495186,2.40715268 L115.495186,3.61072902 C115.495186,4.71801926 114.580468,5.63273728 113.473177,5.63273728 L113.473177,5.63273728 C112.365887,5.63273728 111.451169,4.71801926 111.451169,3.61072902 L111.451169,2.40715268 C111.451169,1.29986245 112.365887,0.385144429 113.473177,0.385144429 Z M113.473177,11.2654746 L113.473177,11.2654746 C114.580468,11.2654746 115.495186,12.1801926 115.495186,13.2874828 L115.495186,32.8817056 C115.495186,33.9889959 114.580468,34.9037139 113.473177,34.9037139 L113.473177,34.9037139 C112.365887,34.9037139 111.451169,33.9889959 111.451169,32.8817056 L111.451169,13.2874828 C111.451169,12.1801926 112.365887,11.2654746 113.473177,11.2654746 Z" id="Shape"></path>
                    <path d="M139.903714,32.0151307 L137.496561,34.4222834 C137.15956,34.7592847 136.678129,34.9518569 136.148556,34.9518569 L126.519945,34.9518569 C126.038514,34.9518569 125.557084,34.7592847 125.171939,34.4222834 L121.272352,30.522696 C120.935351,30.1856946 120.742779,29.7042641 120.742779,29.1746905 L120.742779,17.042641 C120.742779,16.5612105 120.935351,16.0797799 121.272352,15.6946355 L125.171939,11.7950481 C125.508941,11.4580468 125.990371,11.2654746 126.519945,11.2654746 L135.90784,11.2654746 C136.389271,11.2654746 136.870702,11.4580468 137.255846,11.7950481 L139.662999,14.2022008 C140.385144,14.9243466 140.385144,16.127923 139.662999,16.8500688 L139.662999,16.8500688 C138.940853,17.5722146 137.737276,17.5722146 137.015131,16.8500688 L135.618982,15.4539202 C135.281981,15.1169188 134.80055,14.9243466 134.270977,14.9243466 L128.349381,14.9243466 C127.86795,14.9243466 127.38652,15.1169188 127.001376,15.4539202 L125.412655,17.042641 C125.075653,17.3796424 124.883081,17.8610729 124.883081,18.3906465 L124.883081,27.778542 C124.883081,28.2599725 125.075653,28.741403 125.412655,29.1265475 L127.001376,30.7152682 C127.338377,31.0522696 127.819807,31.2448418 128.349381,31.2448418 L134.511692,31.2448418 C134.993122,31.2448418 135.474553,31.0522696 135.859697,30.7152682 L137.255846,29.3191197 C137.977992,28.5969739 139.181568,28.5969739 139.903714,29.3191197 L139.903714,29.3191197 C140.62586,30.0894085 140.62586,31.2929849 139.903714,32.0151307 Z" id="Path"></path>
                    <path d="M164.552957,16.0316369 L164.552957,33.5557084 C164.552957,34.3259972 163.927098,34.9518569 163.156809,34.9518569 L162.193948,34.9518569 C161.423659,34.9518569 160.845942,34.3741403 160.797799,33.6038514 L160.797799,33.6038514 C160.749656,32.4002751 159.257221,31.8225585 158.390646,32.6891334 L156.513067,34.5667125 C156.272352,34.8074278 155.887208,35 155.502063,35 L147.943604,35 C147.558459,35 147.221458,34.8555708 146.9326,34.5667125 L143.707015,31.3411279 C143.4663,31.1004127 143.273728,30.7152682 143.273728,30.3301238 L143.273728,25.9491059 C143.273728,25.5639615 143.418157,25.2269601 143.707015,24.9381018 L146.451169,22.1939477 C146.691884,21.9532325 147.028886,21.8088033 147.365887,21.8088033 L159.064649,20.9903714 C159.786795,20.9422283 160.364512,20.3163686 160.364512,19.5942228 L160.364512,17.5240715 C160.364512,17.1389271 160.220083,16.8019257 159.931224,16.5130674 L158.631362,15.213205 C158.390646,14.9724897 158.005502,14.7799175 157.620358,14.7799175 L150.302613,14.7799175 C149.917469,14.7799175 149.580468,14.9243466 149.291609,15.213205 L147.510316,16.9944979 C146.980743,17.5240715 146.066025,17.5240715 145.536451,16.9944979 L144.862448,16.3204952 C144.332875,15.7909216 144.332875,14.8762036 144.862448,14.34663 L147.558459,11.650619 C147.799175,11.4099037 148.184319,11.2173315 148.569464,11.2173315 L159.690509,11.2173315 C160.075653,11.2173315 160.412655,11.3617607 160.701513,11.650619 L164.071527,15.0206327 C164.408528,15.3094911 164.552957,15.6464924 164.552957,16.0316369 Z M160.460798,26.1898212 L160.460798,25.997249 C160.460798,25.1788171 159.786795,24.5529574 158.968363,24.6011004 L149.387895,25.2751032 C149.050894,25.2751032 148.713893,25.4195323 148.52132,25.6602476 L147.895461,26.2861073 C147.654746,26.5268226 147.462173,26.911967 147.462173,27.2971114 L147.462173,28.9339752 C147.462173,29.3191197 147.606602,29.656121 147.895461,29.9449794 L148.858322,30.9078404 C149.099037,31.1485557 149.484182,31.3411279 149.869326,31.3411279 L155.357634,31.3411279 C155.742779,31.3411279 156.07978,31.1966988 156.368638,30.9078404 L160.123796,27.1526823 C160.316369,26.96011 160.460798,26.5749656 160.460798,26.1898212 Z" id="Shape"></path>
                </g>
            </g>
        </g>
    </g>
</svg>