<?xml version="1.0" encoding="UTF-8"?>
<svg width="66px" height="65px" viewBox="0 0 66 65" version="1.1" xmlns="http://www.w3.org/2000/svg" xmlns:xlink="http://www.w3.org/1999/xlink">
    <title>etat_de_fribourg</title>
    <g id="Page-1" stroke="none" stroke-width="1" fill="none" fill-rule="evenodd">
        <g id="maquette" transform="translate(-165.000000, -4732.000000)" fill="#FFFFFF" fill-rule="nonzero">
            <g id="footer" transform="translate(0.500000, 4473.745671)">
                <g id="partenaires" transform="translate(165.000000, 258.292308)">
                    <g id="etat_de_fribourg" transform="translate(0.000000, 0.000000)">
                        <path d="M0.355027886,30.8918091 L0.355027886,32.2231637 C4.26033463,31.246837 8.43191229,28.8503988 10.7395936,26.7202315 C12.2484621,25.3001199 13.5798166,23.6137375 14.6449003,21.6610841 C14.6449003,21.6610841 14.7336573,21.5723271 14.7336573,21.4835702 C15.709984,19.7084307 16.4200397,17.5782634 16.9525816,15.0930682 C18.3726931,8.25878141 16.2425258,1.4244946 15.7987409,0.536924889 C15.2661991,-0.0843739112 14.5561433,0.00438306032 14.0236015,0.00438306032 C13.9348445,0.00438306032 13.7573306,0.00438306032 13.6685736,0.00438306032 L0.355027886,0.00438306032 L0.355027886,15.62561 L10.5620796,15.62561 C10.6508366,15.62561 10.8283505,15.62561 10.8283505,15.62561 C11.1833784,15.714367 11.4496493,15.891881 11.4496493,16.2469088 C11.4496493,16.3356658 11.4496493,16.4244228 11.4496493,16.5131798 C11.4496493,19.6196738 9.94078081,25.7439048 1.15384063,29.6492115 L0.355027886,30.0042394 C0.355027886,30.0042394 0.355027886,30.8918091 0.355027886,30.8918091 Z" id="Path"></path>
                        <g id="Group" transform="translate(0.000000, 39.589992)">
                            <polygon id="Path" points="0.355027886 0.0887569715 3.81654978 0.0887569715 3.81654978 0.621298801 1.06508366 0.621298801 1.06508366 2.21892429 3.63903583 2.21892429 3.63903583 2.75146612 1.06508366 2.75146612 1.06508366 4.43784858 3.81654978 4.43784858 3.81654978 4.97039041 0.355027886 4.97039041"></polygon>
                            <polygon id="Path" points="5.85796012 0.621298801 4.26033463 0.621298801 4.26033463 0.0887569715 8.25439835 0.0887569715 8.25439835 0.621298801 6.56801589 0.621298801 6.56801589 5.05914738 5.85796012 5.05914738"></polygon>
                            <path d="M9.58575292,0.0887569715 L10.2958087,0.0887569715 L12.2484621,5.05914738 L11.5384063,5.05914738 L11.0058645,3.55027886 L8.87569715,3.55027886 L8.34315532,5.05914738 L7.63309955,5.05914738 L9.58575292,0.0887569715 Z M9.05321109,3.01773703 L10.7395936,3.01773703 L9.94078081,0.710055772 L9.94078081,0.710055772 L9.05321109,3.01773703 Z" id="Shape"></path>
                            <polygon id="Path" points="13.4023027 0.621298801 11.7159202 0.621298801 11.7159202 0.0887569715 15.709984 0.0887569715 15.709984 0.621298801 14.0236015 0.621298801 14.0236015 5.05914738 13.4023027 5.05914738"></polygon>
                            <path d="M18.4614501,0.0887569715 L20.1478325,0.0887569715 C21.6567011,0.0887569715 22.5442708,0.887569715 22.5442708,2.4851952 C22.5442708,4.17157766 21.834215,5.05914738 20.1478325,5.05914738 L18.4614501,5.05914738 L18.4614501,0.0887569715 Z M19.0827489,4.52660555 L20.1478325,4.52660555 C20.5916174,4.52660555 21.834215,4.43784858 21.834215,2.57395217 C21.834215,1.42011154 21.3904301,0.710055772 20.1478325,0.710055772 L18.9939919,0.710055772 L19.0827489,4.52660555 L19.0827489,4.52660555 Z" id="Shape"></path>
                            <path d="M23.4318405,0.0887569715 L26.8933624,0.0887569715 L26.8933624,0.621298801 L24.1418963,0.621298801 L24.1418963,2.21892429 L26.7158484,2.21892429 L26.7158484,2.75146612 L24.1418963,2.75146612 L24.1418963,4.43784858 L26.8933624,4.43784858 L26.8933624,4.97039041 L23.4318405,4.97039041 C23.4318405,4.97039041 23.4318405,0.0887569715 23.4318405,0.0887569715 Z" id="Path"></path>
                            <polygon id="Path" points="29.9110994 0.0887569715 33.1951073 0.0887569715 33.1951073 0.621298801 30.6211552 0.621298801 30.6211552 2.21892429 32.9288364 2.21892429 32.9288364 2.75146612 30.6211552 2.75146612 30.6211552 5.05914738 29.9998564 5.05914738"></polygon>
                            <path d="M33.9939201,0.0887569715 L36.3016014,0.0887569715 C37.1891711,0.0887569715 37.8104699,0.621298801 37.8104699,1.42011154 C37.8104699,2.04141034 37.544199,2.4851952 36.9229002,2.66270915 L36.9229002,2.66270915 C37.544199,2.75146612 37.6329559,3.19525097 37.6329559,3.7277928 C37.6329559,4.17157766 37.6329559,4.79287646 37.8992268,5.05914738 L37.1891711,5.05914738 C37.0116571,4.88163343 37.1004141,4.3490916 37.0116571,3.81654978 C36.9229002,3.37276492 36.8341432,2.92898006 36.2128444,2.92898006 L34.7039759,2.92898006 L34.7039759,5.05914738 L34.0826771,5.05914738 L33.9939201,0.0887569715 L33.9939201,0.0887569715 Z M36.0353304,2.39643823 C36.6566292,2.39643823 37.1891711,2.21892429 37.1891711,1.50886852 C37.1891711,1.06508366 36.9229002,0.621298801 36.3016014,0.621298801 L34.7039759,0.621298801 L34.7039759,2.30768126 L36.0353304,2.39643823 L36.0353304,2.39643823 Z" id="Shape"></path>
                            <polygon id="Path" points="38.9643105 0.0887569715 39.5856093 0.0887569715 39.5856093 5.05914738 38.9643105 5.05914738"></polygon>
                            <path d="M40.8282069,0.0887569715 L42.6033463,0.0887569715 C43.0471312,0.0887569715 43.579673,0.0887569715 43.9347009,0.266270915 C44.2897288,0.443784858 44.5559997,0.798812744 44.5559997,1.33135457 C44.5559997,1.8638964 44.2897288,2.21892429 43.8459439,2.4851952 L43.8459439,2.4851952 C44.4672427,2.57395217 44.8222706,3.106494 44.8222706,3.63903583 C44.8222706,4.3490916 44.2897288,5.05914738 43.3134021,5.05914738 L40.9169639,5.05914738 L40.8282069,0.0887569715 L40.8282069,0.0887569715 Z M41.5382627,2.21892429 L42.8696172,2.21892429 C43.579673,2.21892429 43.9347009,1.95265337 43.9347009,1.42011154 C43.9347009,0.710055772 43.490916,0.621298801 42.8696172,0.621298801 L41.5382627,0.621298801 L41.5382627,2.21892429 Z M41.5382627,4.52660555 L43.2246451,4.52660555 C43.757187,4.52660555 44.1122148,4.17157766 44.1122148,3.63903583 C44.1122148,3.01773703 43.579673,2.84022309 43.0471312,2.84022309 L41.5382627,2.84022309 L41.5382627,4.52660555 L41.5382627,4.52660555 Z" id="Shape"></path>
                            <path d="M47.8400076,-6.30656214e-15 C49.4376331,-6.30656214e-15 50.2364459,1.2425976 50.2364459,2.57395217 C50.2364459,3.90530675 49.4376331,5.14790435 47.8400076,5.14790435 C46.2423822,5.14790435 45.4435694,3.90530675 45.4435694,2.57395217 C45.4435694,1.2425976 46.2423822,-6.30656214e-15 47.8400076,-6.30656214e-15 Z M47.8400076,4.61536252 C49.0826052,4.61536252 49.5263901,3.55027886 49.5263901,2.57395217 C49.5263901,1.59762549 48.9938483,0.532541829 47.8400076,0.532541829 C46.59741,0.532541829 46.1536252,1.59762549 46.1536252,2.57395217 C46.1536252,3.55027886 46.59741,4.61536252 47.8400076,4.61536252 Z" id="Shape"></path>
                            <path d="M55.1180793,3.28400795 C55.1180793,4.52660555 54.4080235,5.23666132 53.1654259,5.23666132 C51.9228283,5.23666132 51.1240156,4.61536252 51.1240156,3.28400795 L51.1240156,0.0887569715 L51.7453144,0.0887569715 L51.7453144,3.28400795 C51.7453144,4.17157766 52.2778562,4.61536252 53.076669,4.61536252 C53.8754817,4.61536252 54.4080235,4.17157766 54.4080235,3.28400795 L54.4080235,0.0887569715 L55.1180793,0.0887569715 L55.1180793,3.28400795 Z" id="Path"></path>
                            <path d="M56.2719199,0.0887569715 L58.6683582,0.0887569715 C59.5559279,0.0887569715 60.1772267,0.621298801 60.1772267,1.42011154 C60.1772267,2.04141034 59.9109558,2.4851952 59.289657,2.66270915 L59.289657,2.66270915 C59.9109558,2.75146612 59.9997127,3.19525097 59.9997127,3.7277928 C59.9997127,4.17157766 59.9997127,4.79287646 60.2659837,5.05914738 L59.5559279,5.05914738 C59.3784139,4.88163343 59.4671709,4.3490916 59.3784139,3.81654978 C59.289657,3.37276492 59.2009,2.92898006 58.5796012,2.92898006 L56.9819757,2.92898006 L56.9819757,5.05914738 L56.3606769,5.05914738 L56.2719199,0.0887569715 L56.2719199,0.0887569715 Z M58.3133303,2.39643823 C58.9346291,2.39643823 59.4671709,2.21892429 59.4671709,1.50886852 C59.4671709,1.06508366 59.2009,0.621298801 58.5796012,0.621298801 L56.9819757,0.621298801 L56.9819757,2.30768126 L58.3133303,2.39643823 L58.3133303,2.39643823 Z" id="Shape"></path>
                            <path d="M64.8813462,4.43784858 C64.5263183,4.97039041 63.9050195,5.14790435 63.2837207,5.14790435 C61.7748522,5.14790435 60.8872825,3.90530675 60.8872825,2.66270915 C60.8872825,1.2425976 61.6860952,-6.30656214e-15 63.2837207,-6.30656214e-15 C64.3488044,-6.30656214e-15 65.2363741,0.443784858 65.413888,1.68638246 L64.7925892,1.68638246 C64.7038322,0.976326687 64.0825334,0.621298801 63.2837207,0.621298801 C62.0411231,0.621298801 61.5973382,1.68638246 61.5973382,2.75146612 C61.5973382,3.81654978 62.218637,4.70411949 63.2837207,4.70411949 C64.3488044,4.70411949 64.8813462,3.99406372 64.8813462,3.106494 L63.2837207,3.106494 L63.2837207,2.57395217 L65.413888,2.57395217 L65.413888,5.14790435 L64.9701032,5.14790435 L64.8813462,4.43784858 Z" id="Path"></path>
                            <path d="M3.19525097,11.4496493 C3.106494,10.7395936 2.66270915,10.4733226 1.95265337,10.4733226 C1.42011154,10.4733226 0.798812744,10.6508366 0.798812744,11.3608924 C0.798812744,11.9821912 1.59762549,12.0709481 2.39643823,12.2484621 C3.19525097,12.425976 3.99406372,12.6922469 3.99406372,13.6685736 C3.99406372,14.7336573 2.92898006,15.1774421 2.04141034,15.1774421 C0.887569715,15.1774421 1.57664053e-15,14.6449003 1.57664053e-15,13.4023027 L0.621298801,13.4023027 C0.621298801,14.2011154 1.33135457,14.5561433 2.04141034,14.5561433 C2.66270915,14.5561433 3.28400795,14.3786294 3.28400795,13.6685736 C3.28400795,12.9585178 2.4851952,12.8697609 1.68638246,12.6922469 C0.887569715,12.514733 0.0887569715,12.2484621 0.0887569715,11.3608924 C0.0887569715,10.3845657 0.976326687,9.94078081 1.8638964,9.94078081 C2.84022309,9.94078081 3.63903583,10.3845657 3.7277928,11.5384063 L3.19525097,11.5384063 L3.19525097,11.4496493 Z" id="Path"></path>
                            <polygon id="Path" points="5.85796012 10.5620796 4.17157766 10.5620796 4.17157766 10.0295378 8.16564138 10.0295378 8.16564138 10.5620796 6.47925892 10.5620796 6.47925892 14.9999282 5.85796012 14.9999282"></polygon>
                            <path d="M9.58575292,10.0295378 L10.2958087,10.0295378 L12.2484621,14.9999282 L11.5384063,14.9999282 L11.0058645,13.4910597 L8.87569715,13.4910597 L8.34315532,14.9999282 L7.63309955,14.9999282 L9.58575292,10.0295378 Z M9.05321109,12.9585178 L10.7395936,12.9585178 L9.94078081,10.6508366 L9.94078081,10.6508366 L9.05321109,12.9585178 Z" id="Shape"></path>
                            <path d="M14.2011154,10.0295378 L14.9111712,10.0295378 L16.8638246,14.9999282 L16.1537688,14.9999282 L15.621227,13.4910597 L13.4910597,13.4910597 L12.9585178,14.9999282 L12.2484621,14.9999282 L14.2011154,10.0295378 Z M13.6685736,12.9585178 L15.3549561,12.9585178 L14.5561433,10.6508366 L14.5561433,10.6508366 L13.6685736,12.9585178 Z" id="Shape"></path>
                            <polygon id="Path" points="18.0176652 10.5620796 16.3312828 10.5620796 16.3312828 10.0295378 20.3253465 10.0295378 20.3253465 10.5620796 18.638964 10.5620796 18.638964 14.9999282 18.0176652 14.9999282 18.0176652 10.5620796"></polygon>
                            <polygon id="Path" points="23.0768126 10.0295378 26.3608205 10.0295378 26.3608205 10.5620796 23.7868684 10.5620796 23.7868684 12.1597051 26.0945496 12.1597051 26.0945496 12.6922469 23.7868684 12.6922469 23.7868684 14.9999282 23.1655696 14.9999282 23.1655696 10.0295378"></polygon>
                            <path d="M27.1596333,10.0295378 L29.4673145,10.0295378 C30.3548843,10.0295378 30.9761831,10.5620796 30.9761831,11.3608924 C30.9761831,11.9821912 30.7099121,12.425976 30.0886133,12.60349 L30.0886133,12.60349 C30.6211552,12.6922469 30.7986691,13.1360318 30.7986691,13.6685736 C30.7986691,14.1123585 30.7986691,14.7336573 31.06494,14.9999282 L30.3548843,14.9999282 C30.1773703,14.8224142 30.2661273,14.2898724 30.1773703,13.7573306 C30.0886133,13.3135457 29.9998564,12.8697609 29.3785576,12.8697609 L27.7809321,12.8697609 L27.7809321,14.9999282 L27.1596333,14.9999282 C27.1596333,14.9999282 27.1596333,10.0295378 27.1596333,10.0295378 Z M29.2010436,12.337219 C29.8223424,12.337219 30.3548843,12.1597051 30.3548843,11.4496493 C30.3548843,11.0058645 30.0886133,10.5620796 29.4673145,10.5620796 L27.8696891,10.5620796 L27.8696891,12.2484621 L29.2010436,12.337219 L29.2010436,12.337219 Z" id="Shape"></path>
                            <polygon id="Path" points="32.0412667 10.0295378 35.5027886 10.0295378 35.5027886 10.5620796 32.7513225 10.5620796 32.7513225 12.1597051 35.3252747 12.1597051 35.3252747 12.6922469 32.7513225 12.6922469 32.7513225 14.3786294 35.5027886 14.3786294 35.5027886 14.9111712 32.0412667 14.9111712"></polygon>
                            <polygon id="Path" points="36.4791153 10.0295378 37.1004141 10.0295378 37.1004141 14.9999282 36.4791153 14.9999282"></polygon>
                            <path d="M38.3430117,10.0295378 L40.1181511,10.0295378 C40.561936,10.0295378 41.0944778,10.0295378 41.4495057,10.2070517 C41.8045336,10.3845657 42.0708045,10.7395936 42.0708045,11.2721354 C42.0708045,11.8046772 41.8045336,12.1597051 41.3607487,12.425976 L41.3607487,12.425976 C41.9820475,12.514733 42.3370754,13.0472748 42.3370754,13.5798166 C42.3370754,14.2898724 41.8045336,14.9999282 40.8282069,14.9999282 L38.4317687,14.9999282 L38.3430117,10.0295378 L38.3430117,10.0295378 Z M39.0530675,12.1597051 L40.384422,12.1597051 C41.0944778,12.1597051 41.4495057,11.8934342 41.4495057,11.3608924 C41.4495057,10.6508366 41.0057208,10.5620796 40.384422,10.5620796 L39.0530675,10.5620796 L39.0530675,12.1597051 Z M39.0530675,14.4673864 L40.7394499,14.4673864 C41.2719918,14.4673864 41.6270196,14.1123585 41.6270196,13.5798166 C41.6270196,12.9585178 41.0944778,12.7810039 40.561936,12.7810039 L39.0530675,12.7810039 L39.0530675,14.4673864 L39.0530675,14.4673864 Z" id="Shape"></path>
                            <path d="M47.2187088,13.2247888 C47.2187088,14.4673864 46.5086531,15.1774421 45.2660555,15.1774421 C44.0234579,15.1774421 43.2246451,14.5561433 43.2246451,13.2247888 L43.2246451,10.0295378 L43.8459439,10.0295378 L43.8459439,13.2247888 C43.8459439,14.1123585 44.3784858,14.5561433 45.1772985,14.5561433 C45.9761112,14.5561433 46.5086531,14.1123585 46.5086531,13.2247888 L46.5086531,10.0295378 L47.1299519,10.0295378 L47.2187088,13.2247888 L47.2187088,13.2247888 Z" id="Path"></path>
                            <path d="M48.3725495,10.0295378 L50.6802307,10.0295378 C51.5678005,10.0295378 52.1890993,10.5620796 52.1890993,11.3608924 C52.1890993,11.9821912 51.9228283,12.425976 51.3015295,12.60349 L51.3015295,12.60349 C51.8340714,12.6922469 52.0115853,13.1360318 52.0115853,13.6685736 C52.0115853,14.1123585 52.0115853,14.7336573 52.2778562,14.9999282 L51.5678005,14.9999282 C51.3902865,14.8224142 51.4790435,14.2898724 51.3902865,13.7573306 C51.3015295,13.3135457 51.2127726,12.8697609 50.5914738,12.8697609 L48.9938483,12.8697609 L48.9938483,14.9999282 L48.3725495,14.9999282 C48.3725495,14.9999282 48.3725495,10.0295378 48.3725495,10.0295378 Z M50.4139598,12.337219 C51.0352586,12.337219 51.5678005,12.1597051 51.5678005,11.4496493 C51.5678005,11.0058645 51.3015295,10.5620796 50.6802307,10.5620796 L49.0826052,10.5620796 L49.0826052,12.2484621 L50.4139598,12.337219 L50.4139598,12.337219 Z" id="Shape"></path>
                            <path d="M56.9819757,14.3786294 C56.6269478,14.9111712 56.005649,15.0886852 55.3843502,15.0886852 C53.8754817,15.0886852 52.987912,13.8460876 52.987912,12.60349 C52.987912,11.1833784 53.7867247,9.94078081 55.3843502,9.94078081 C56.4494339,9.94078081 57.3370036,10.3845657 57.5145175,11.6271633 L56.8932187,11.6271633 C56.8044618,10.9171075 56.183163,10.5620796 55.3843502,10.5620796 C54.1417526,10.5620796 53.6979678,11.6271633 53.6979678,12.6922469 C53.6979678,13.7573306 54.3192666,14.6449003 55.3843502,14.6449003 C56.4494339,14.6449003 56.9819757,13.9348445 56.9819757,13.0472748 L55.3843502,13.0472748 L55.3843502,12.514733 L57.5145175,12.514733 L57.5145175,15.0886852 L57.0707327,15.0886852 L56.9819757,14.3786294 Z" id="Path"></path>
                            <polygon id="Path" points="3.46152189 24.940709 3.01773703 24.940709 2.21892429 22.1004859 2.21892429 22.1004859 1.42011154 24.940709 0.976326687 24.940709 0.0887569715 21.5679441 0.532541829 21.5679441 1.2425976 24.3194102 1.2425976 24.3194102 2.04141034 21.4791871 2.57395217 21.4791871 3.19525097 24.3194102 3.19525097 24.3194102 3.90530675 21.4791871 4.3490916 21.4791871"></polygon>
                            <polygon id="Path" points="7.98812744 24.940709 7.54434258 24.940709 6.74552984 22.1004859 6.74552984 22.1004859 5.94671709 24.940709 5.50293223 24.940709 4.61536252 21.5679441 5.05914738 21.5679441 5.76920315 24.3194102 5.76920315 24.3194102 6.56801589 21.4791871 7.10055772 21.4791871 7.72185652 24.3194102 7.72185652 24.3194102 8.43191229 21.4791871 8.87569715 21.4791871"></polygon>
                            <polygon id="Path" points="12.514733 24.940709 12.0709481 24.940709 11.2721354 22.1004859 11.2721354 22.1004859 10.4733226 24.940709 10.0295378 24.940709 9.14196807 21.5679441 9.58575292 21.5679441 10.2958087 24.4081672 10.2958087 24.4081672 11.0946214 21.5679441 11.6271633 21.5679441 12.337219 24.4081672 12.337219 24.4081672 13.0472748 21.5679441 13.4023027 21.5679441"></polygon>
                            <polygon id="Path" points="13.5798166 24.4081672 14.1123585 24.4081672 14.1123585 24.940709 13.5798166 24.940709"></polygon>
                            <polygon id="Path" points="14.9999282 21.4791871 17.2188525 21.4791871 17.2188525 21.834215 15.443713 21.834215 15.443713 22.8992987 17.0413385 22.8992987 17.0413385 23.2543265 15.443713 23.2543265 15.443713 24.851952 14.9999282 24.851952"></polygon>
                            <path d="M17.8401513,21.4791871 L19.4377768,21.4791871 C20.0590756,21.4791871 20.5028604,21.834215 20.5028604,22.3667568 C20.5028604,22.8105417 20.3253465,23.0768126 19.8815616,23.2543265 L19.8815616,23.2543265 C20.2365895,23.3430835 20.3253465,23.6093544 20.4141034,23.9643823 C20.4141034,24.3194102 20.4141034,24.6744381 20.5916174,24.940709 L20.0590756,24.940709 C19.9703186,24.7631951 19.9703186,24.4081672 19.9703186,24.1418963 C19.8815616,23.7868684 19.8815616,23.5205975 19.4377768,23.5205975 L18.3726931,23.5205975 L18.3726931,24.940709 L17.8401513,24.940709 L17.8401513,21.4791871 Z M19.2602628,23.0768126 C19.7040477,23.0768126 20.0590756,22.9880556 20.0590756,22.4555138 C20.0590756,22.1004859 19.8815616,21.834215 19.4377768,21.834215 L18.2839361,21.834215 L18.2839361,22.9880556 L19.2602628,23.0768126 L19.2602628,23.0768126 Z" id="Shape"></path>
                            <polygon id="Path" points="21.2129162 24.4081672 21.745458 24.4081672 21.745458 24.940709 21.2129162 24.940709"></polygon>
                            <path d="M25.029466,22.5442708 C24.940709,22.1004859 24.5856811,21.834215 24.0531393,21.834215 C23.2543265,21.834215 22.8992987,22.5442708 22.8992987,23.2543265 C22.8992987,24.0531393 23.2543265,24.6744381 24.0531393,24.6744381 C24.6744381,24.6744381 25.029466,24.2306532 25.029466,23.6981114 L25.4732508,23.6981114 C25.3844939,24.5856811 24.851952,25.029466 23.9643823,25.029466 C22.8992987,25.029466 22.3667568,24.2306532 22.3667568,23.2543265 C22.3667568,22.2779999 22.8992987,21.4791871 23.9643823,21.4791871 C24.6744381,21.4791871 25.2957369,21.834215 25.3844939,22.5442708 C25.3844939,22.5442708 25.029466,22.5442708 25.029466,22.5442708 Z" id="Path"></path>
                            <path d="M26.1833066,21.4791871 L26.6270915,21.4791871 L26.6270915,22.8992987 L28.4022309,22.8992987 L28.4022309,21.4791871 L28.8460157,21.4791871 L28.8460157,24.851952 L28.4022309,24.851952 L28.4022309,23.2543265 L26.6270915,23.2543265 L26.6270915,24.851952 L26.1833066,24.851952 C26.1833066,24.851952 26.1833066,21.4791871 26.1833066,21.4791871 Z" id="Path"></path>
                        </g>
                    </g>
                </g>
            </g>
        </g>
    </g>
</svg>