<?xml version="1.0" encoding="UTF-8"?>
<svg width="97px" height="35px" viewBox="0 0 97 35" version="1.1" xmlns="http://www.w3.org/2000/svg" xmlns:xlink="http://www.w3.org/1999/xlink">
    <title>lotterie_romande</title>
    <g id="Page-1" stroke="none" stroke-width="1" fill="none" fill-rule="evenodd">
        <g id="maquette" transform="translate(-321.000000, -4839.000000)" fill="#FFFFFF" fill-rule="nonzero">
            <g id="footer" transform="translate(0.500000, 4473.745671)">
                <g id="partenaires" transform="translate(165.000000, 258.292308)">
                    <g id="lotterie_romande" transform="translate(155.581342, 107.447592)">
                        <path d="M7.04668486,15.2649872 C7.04668486,11.5463752 10.0351584,8.50696173 13.7198105,8.50696173 C17.4044626,8.50696173 20.4099162,11.5463752 20.4099162,15.2649872 C20.4099162,18.9835992 17.4044626,22.0061035 13.7198105,22.0061035 C10.0521384,22.0230127 7.04668486,18.9835992 7.04668486,15.2649872 Z M96.2594132,0 L96.2594132,33.5524079 L0,33.5524079 L0,0 L96.2594132,0 Z M3.17525318,13.1085318 C3.17525318,18.9496393 7.89568304,23.6870491 13.7367905,23.6870491 C19.5778979,23.6870491 24.2983278,18.9496393 24.2983278,13.1085318 C24.2983278,7.25044443 19.5778979,2.5130346 13.7367905,2.5130346 C7.89568304,2.5130346 3.17525318,7.25044443 3.17525318,13.1085318 Z M0.730138432,5.43358833 C1.8168561,3.56579234 3.31109289,1.96967577 5.06002913,0.730138432 L0.730138432,0.730138432 L0.730138432,5.43358833 Z M95.5292748,0.730138432 L22.4135519,0.730138432 C26.3019635,3.46391256 28.8319781,7.98058286 28.8319781,13.1085318 C28.8319781,21.4626739 22.0739526,28.2376793 13.7367905,28.2376793 C8.20132238,28.2376793 3.36203278,25.2492058 0.730138432,20.7834754 L0.730138432,32.8222695 L95.5292748,32.8222695 L95.5292748,0.730138432 Z M42.823468,6.77500545 L45.4893223,6.77500545 L45.4893223,12.3614134 L48.1042367,12.3614134 L48.1042367,14.6367286 L42.823468,14.6367286 L42.823468,6.77500545 L42.823468,6.77500545 Z M49.0720946,10.6634171 C49.0720946,10.0351584 49.1909543,9.45783969 49.4116939,8.94844078 C49.6324334,8.43904187 49.9380727,8.01454279 50.3286119,7.65796355 C50.7191511,7.30138432 51.1776101,7.0297049 51.7209689,6.8429253 C52.2473478,6.6561457 52.8246665,6.55426592 53.4529252,6.55426592 C54.0811838,6.55426592 54.6585026,6.6561457 55.1848815,6.8429253 C55.7112603,7.0297049 56.1866993,7.31836428 56.5772385,7.65796355 C56.9677776,8.01454279 57.273417,8.43904187 57.4941565,8.94844078 C57.714896,9.45783969 57.8337558,10.0351584 57.8337558,10.6634171 C57.8337558,11.2916757 57.714896,11.8689945 57.4941565,12.3953734 C57.273417,12.9217522 56.9677776,13.3632313 56.5772385,13.7198105 C56.1866993,14.0933697 55.7282403,14.3650491 55.1848815,14.5688087 C54.6585026,14.7725683 54.0642039,14.8744481 53.4529252,14.8744481 C52.8246665,14.8744481 52.2473478,14.7725683 51.7209689,14.5688087 C51.19459,14.3650491 50.7191511,14.0933697 50.3286119,13.7198105 C49.9380727,13.3462513 49.6324334,12.9047723 49.4116939,12.3953734 C49.1909543,11.8689945 49.0720946,11.2916757 49.0720946,10.6634171 Z M51.8907685,10.6634171 C51.8907685,10.9181165 51.9247285,11.155836 52.0096283,11.3765756 C52.0945281,11.5973151 52.1964079,11.7840947 52.3322476,11.9369144 C52.4680873,12.089734 52.6378869,12.2085938 52.8246665,12.2934936 C53.0114461,12.3783934 53.2321857,12.4293333 53.4529252,12.4293333 C53.6736647,12.4293333 53.8774243,12.3953734 54.0642039,12.2934936 C54.2509835,12.2085938 54.4207831,12.089734 54.5566228,11.9369144 C54.6924625,11.7840947 54.8113223,11.5973151 54.8792421,11.3765756 C54.9641419,11.155836 54.9981019,10.9181165 54.9981019,10.6634171 C54.9981019,10.4087176 54.9641419,10.1879781 54.8792421,9.96723859 C54.7943423,9.76347903 54.6924625,9.57669943 54.5566228,9.44085972 C54.4207831,9.30502001 54.2509835,9.18616027 54.0642039,9.10126045 C53.8774243,9.01636063 53.6736647,8.98240071 53.4529252,8.98240071 C53.2321857,8.98240071 53.0284261,9.01636063 52.8246665,9.10126045 C52.6378869,9.18616027 52.4680873,9.30502001 52.3322476,9.44085972 C52.1964079,9.57669943 52.0945281,9.76347903 52.0096283,9.96723859 C51.9417084,10.1879781 51.8907685,10.4087176 51.8907685,10.6634171 Z M63.2843241,14.6537085 L60.6354498,14.6537085 L60.6354498,8.99938067 L58.6997339,8.99938067 L58.6997339,6.77500545 L65.2200399,6.77500545 L65.2200399,8.99938067 L63.2843241,8.99938067 L63.2843241,14.6537085 Z M66.6803168,6.77500545 L72.0969251,6.77500545 L72.0969251,8.98240071 L69.1763714,8.98240071 L69.1763714,9.66159925 L71.9271255,9.66159925 L71.9271255,11.7161748 L69.1763714,11.7161748 L69.1763714,12.4463133 L72.3006847,12.4463133 L72.3006847,14.6537085 L66.6972967,14.6537085 L66.6803168,6.77500545 L66.6803168,6.77500545 Z M74.0496209,6.77500545 L77.4456137,6.77500545 C77.8361528,6.77500545 78.209712,6.80896537 78.6002512,6.89386519 C78.9907903,6.97876501 79.3303896,7.11460472 79.619049,7.30138432 C79.9246883,7.50514388 80.1624078,7.75984333 80.3491874,8.0994426 C80.535967,8.42206191 80.6208668,8.846561 80.6208668,9.33897994 C80.6208668,9.81441892 80.5020071,10.238918 80.2642876,10.6124772 C80.0265681,10.9860364 79.6869688,11.2577158 79.2454898,11.4614754 L81.2491255,14.6537085 L78.209712,14.6537085 L76.6984953,11.8350346 L76.6135954,11.8350346 L76.6135954,14.6537085 L74.0496209,14.6537085 L74.0496209,6.77500545 L74.0496209,6.77500545 Z M76.5966155,10.1030783 L77.1229943,10.1030783 C77.2078942,10.1030783 77.3097739,10.1030783 77.4116537,10.0860983 C77.5135335,10.0691184 77.6154133,10.0351584 77.7172931,9.98421855 C77.8021929,9.93327866 77.8870927,9.86535881 77.9550126,9.78045899 C78.0229324,9.69555917 78.0568923,9.57669943 78.0568923,9.44085972 C78.0568923,9.30502001 78.0229324,9.18616027 77.9719925,9.10126045 C77.9210526,9.01636063 77.8531328,8.96542074 77.768233,8.91448085 C77.6833331,8.88052093 77.5984333,8.846561 77.5135335,8.82958103 C77.4116537,8.81260107 77.3267539,8.81260107 77.2418541,8.81260107 L76.6135954,8.81260107 L76.5966155,10.1030783 L76.5966155,10.1030783 Z M82.2339634,6.77500545 L84.8998176,6.77500545 L84.8998176,14.6537085 L82.2339634,14.6537085 L82.2339634,6.77500545 Z M86.580834,6.77500545 L91.9974424,6.77500545 L91.9974424,8.98240071 L89.0768887,8.98240071 L89.0768887,9.66159925 L91.8276428,9.66159925 L91.8276428,11.7161748 L89.0768887,11.7161748 L89.0768887,12.4463133 L92.201202,12.4463133 L92.201202,14.6537085 L86.597814,14.6537085 L86.597814,6.77500545 L86.580834,6.77500545 Z M31.0393733,18.2704408 L34.4183861,18.2704408 C34.8089252,18.2704408 35.1824844,18.3044007 35.5730236,18.3893005 C35.9465828,18.4742003 36.2861821,18.61004 36.5918214,18.7968196 C36.8974607,19.0005792 37.1351802,19.2552786 37.3219598,19.5948779 C37.5087394,19.9174972 37.5936393,20.3419963 37.5936393,20.8344152 C37.5936393,21.3098542 37.4747795,21.7343533 37.23706,22.1079125 C36.9993405,22.4814717 36.6597413,22.7531511 36.2182622,22.9569107 L38.2049179,26.1491438 L35.1655045,26.1491438 L33.6542877,23.3474499 L33.5693879,23.3474499 L33.5693879,26.1491438 L31.0054134,26.1491438 L31.0054134,18.2704408 L31.0393733,18.2704408 Z M33.5863679,21.5815336 L34.0957668,21.5815336 C34.1806666,21.5815336 34.2825464,21.5815336 34.3844261,21.5645537 C34.4863059,21.5475737 34.5881857,21.5136138 34.6730855,21.4626739 C34.7579853,21.411734 34.8428852,21.3438142 34.910805,21.2589143 C34.9787249,21.1740145 34.9957048,21.0551548 34.9957048,20.9193151 C34.9957048,20.7834754 34.9617449,20.6646156 34.910805,20.5797158 C34.8598651,20.494816 34.7919453,20.4438761 34.7070455,20.3929362 C34.6221456,20.3589763 34.5372458,20.3250163 34.435366,20.3080364 C34.3334863,20.2910564 34.2485864,20.2910564 34.1636866,20.2910564 L33.535428,20.2910564 L33.535428,21.5815336 L33.5863679,21.5815336 L33.5863679,21.5815336 Z M38.646397,22.1588524 C38.646397,21.5305938 38.7652567,20.970255 38.9859963,20.4608561 C39.2067358,19.9514571 39.5123751,19.5269581 39.9029143,19.1703788 C40.2934535,18.8137996 40.7519125,18.5421202 41.2782913,18.3553406 C41.8046702,18.168561 42.3989689,18.0666812 43.0102476,18.0666812 C43.6385063,18.0666812 44.215825,18.168561 44.7422039,18.3553406 C45.2685828,18.5421202 45.7440217,18.8137996 46.1345609,19.1703788 C46.5251001,19.5269581 46.8307394,19.9514571 47.0514789,20.4608561 C47.2722185,20.970255 47.3910782,21.5305938 47.3910782,22.1588524 C47.3910782,22.7871111 47.2722185,23.3644298 47.0514789,23.8738287 C46.8307394,24.4002076 46.5251001,24.8416866 46.1345609,25.1982659 C45.7440217,25.5718251 45.2855627,25.8435045 44.7422039,26.0472641 C44.215825,26.2510236 43.6385063,26.3529034 43.0102476,26.3529034 C42.381989,26.3529034 41.8046702,26.2510236 41.2782913,26.0472641 C40.7519125,25.8435045 40.2934535,25.5718251 39.9029143,25.1982659 C39.5123751,24.8247067 39.2067358,24.3832276 38.9859963,23.8738287 C38.7482768,23.3644298 38.646397,22.7871111 38.646397,22.1588524 Z M41.448091,22.1588524 C41.448091,22.4135519 41.4820509,22.6512713 41.5669507,22.8720109 C41.6518505,23.0927504 41.7537303,23.27953 41.88957,23.4323497 C42.0254097,23.5851693 42.1952094,23.7040291 42.381989,23.7889289 C42.5687686,23.8738287 42.7895081,23.9247686 43.0102476,23.9247686 C43.2309871,23.9247686 43.4347467,23.8738287 43.6215263,23.7889289 C43.8083059,23.7040291 43.9781055,23.5851693 44.1139452,23.4323497 C44.249785,23.27953 44.3686447,23.0927504 44.4365646,22.8720109 C44.5044844,22.6512713 44.5554243,22.4135519 44.5554243,22.1588524 C44.5554243,21.904153 44.5214644,21.6834134 44.4365646,21.4626739 C44.3516647,21.2589143 44.249785,21.0721347 44.1139452,20.936295 C43.9781055,20.8004553 43.8083059,20.6815956 43.6215263,20.5966958 C43.4347467,20.5117959 43.2309871,20.477836 43.0102476,20.477836 C42.7895081,20.477836 42.5857485,20.5117959 42.381989,20.5966958 C42.1952094,20.6815956 42.0254097,20.8004553 41.88957,20.936295 C41.7537303,21.0891147 41.6518505,21.2589143 41.5669507,21.4626739 C41.4820509,21.6664335 41.448091,21.904153 41.448091,22.1588524 Z M50.8380108,21.6834134 L50.9568705,26.1321639 L48.4947758,26.1321639 L48.4947758,18.2704408 L51.9586884,18.2704408 L53.3850053,22.4984517 L53.4359452,22.4984517 L54.6754826,18.2704408 L58.2412749,18.2704408 L58.2412749,26.1321639 L55.6603204,26.1321639 L55.7452203,21.7173734 L55.6773004,21.7003934 L54.2170235,26.1321639 L52.3492276,26.1321639 L50.9059307,21.6834134 L50.8380108,21.6834134 L50.8380108,21.6834134 Z M62.2655263,18.2704408 L65.0672202,18.2704408 L68.1236137,26.1321639 L65.2539998,26.1321639 L64.8464807,24.9775264 L62.3504261,24.9775264 L61.9598869,26.1321639 L59.1581929,26.1321639 L62.2655263,18.2704408 Z M63.6239233,21.0042149 L62.9786847,22.9569107 L64.252182,22.9569107 L63.6239233,21.0042149 Z M69.0744916,18.2704408 L71.706386,18.2704408 L73.9477412,22.2607322 L73.9986811,22.2607322 L73.8968013,18.2704408 L76.4098359,18.2704408 L76.4098359,26.1321639 L73.6930417,26.1321639 L71.5196064,22.3795919 L71.4686665,22.3795919 L71.5875262,26.1321639 L69.0744916,26.1321639 L69.0744916,18.2704408 L69.0744916,18.2704408 Z M77.8531328,26.1321639 L77.8531328,18.2704408 L80.7906665,18.2704408 C81.4189251,18.2704408 82.0132238,18.3383606 82.5735626,18.4572204 C83.1339014,18.5760801 83.6433003,18.7968196 84.0677994,19.085479 C84.5092785,19.3911183 84.8488778,19.7816575 85.1035772,20.2740765 C85.3582767,20.7664954 85.4941164,21.394754 85.4941164,22.1418724 C85.4941164,22.8380509 85.3752566,23.4323497 85.1205572,23.9247686 C84.8658577,24.4341675 84.5432384,24.8416866 84.1187393,25.1643059 C83.7112202,25.4869253 83.2188013,25.7246447 82.6924224,25.8774644 C82.1490636,26.0302841 81.5887248,26.1151839 81.011406,26.1151839 L77.8531328,26.1151839 L77.8531328,26.1321639 L77.8531328,26.1321639 Z M80.4001273,20.5117959 L80.4001273,23.8568488 L80.8925462,23.8568488 C81.5208049,23.8568488 81.9962439,23.721009 82.3188632,23.4493296 C82.6584625,23.1776502 82.8112821,22.7361712 82.8112821,22.1248925 C82.8112821,21.6154936 82.6414825,21.2249544 82.3188632,20.936295 C81.9792639,20.6476357 81.5377849,20.5117959 80.9774461,20.5117959 L80.4001273,20.5117959 L80.4001273,20.5117959 Z M86.597814,18.2704408 L91.9974424,18.2704408 L91.9974424,20.4608561 L89.0768887,20.4608561 L89.0768887,21.1400546 L91.8106628,21.1400546 L91.8106628,23.1946302 L89.0768887,23.1946302 L89.0768887,23.9247686 L92.201202,23.9247686 L92.201202,26.1151839 L86.597814,26.1151839 L86.597814,18.2704408 Z" id="Shape"></path>
                    </g>
                </g>
            </g>
        </g>
    </g>
</svg>