<?xml version="1.0" encoding="UTF-8"?>
<svg width="46px" height="47px" viewBox="0 0 46 47" version="1.1" xmlns="http://www.w3.org/2000/svg" xmlns:xlink="http://www.w3.org/1999/xlink">
    <title>logo-linkeldin</title>
    <g id="Page-1" stroke="none" stroke-width="1" fill="none" fill-rule="evenodd">
        <g id="maquette" transform="translate(-1230.000000, -4732.000000)" fill="#FFFFFF">
            <g id="footer" transform="translate(0.500000, 4473.745671)">
                <g id="reseaux" transform="translate(1021.493034, 258.292308)">
                    <path d="M251.47107,0.707692308 L211.250556,0.707692308 C210.54286,0.707692308 209.943293,0.953413278 209.451838,1.44487154 C208.960382,1.9363298 208.714658,2.53590203 208.714658,3.24358821 L208.714658,43.5230771 C208.714658,44.1914561 208.960382,44.7713651 209.451838,45.2628204 C209.943293,45.7542759 210.54286,46 211.250556,46 L251.47107,46 C252.178756,46 252.778328,45.7542759 253.269787,45.2628204 C253.761245,44.7713651 254.006966,44.1914561 254.006966,43.5230771 L254.006966,3.24358821 C254.006966,2.53590203 253.761245,1.9363298 253.269787,1.44487154 C252.778328,0.953413278 252.178756,0.707692308 251.47107,0.707692308 Z M222.160812,39.3358971 L215.437736,39.3358971 L215.437736,17.6923077 L222.160812,17.6923077 L222.160812,39.3358971 Z M218.799274,14.7435908 C217.698413,14.7435908 216.77449,14.3602628 216.027479,13.5935905 C215.280466,12.8269182 214.906965,11.9128297 214.906965,10.8512759 C214.906965,9.78973849 215.280466,8.87564995 216.027479,8.10897767 C216.77449,7.3423054 217.698413,6.95897742 218.799274,6.95897742 C219.860818,6.95897742 220.774911,7.3423054 221.541582,8.10897767 C222.308252,8.87564995 222.691582,9.78973849 222.691582,10.8512759 C222.691582,11.9128297 222.308252,12.8269182 221.541582,13.5935905 C220.774911,14.3602628 219.860818,14.7435908 218.799274,14.7435908 Z M247.28389,39.3358971 L240.619784,39.3358971 L240.619784,28.7794892 C240.619784,27.5213587 240.462526,26.2534189 240.147993,24.9756372 C239.83346,23.6978555 238.811242,23.058981 237.08132,23.058981 C235.351399,23.058981 234.250559,23.6388857 233.778768,24.7987116 C233.306961,25.9585537 233.071066,27.2264935 233.071066,28.6025636 L233.071066,39.3358971 L226.34799,39.3358971 L226.34799,17.6923077 L232.776201,17.6923077 L232.776201,20.6410246 L232.89414,20.6410246 C233.326629,19.8153826 234.083459,19.0290591 235.164664,18.2820543 C236.245853,17.5350332 237.612081,17.1615308 239.263381,17.1615308 C242.644587,17.1615308 244.826615,18.1542566 245.809532,20.1397408 C246.792448,22.125225 247.28389,24.5726418 247.28389,27.4820564 L247.28389,39.3358971 Z" id="logo-linkeldin"></path>
                </g>
            </g>
        </g>
    </g>
</svg>