<?xml version="1.0" encoding="UTF-8"?>
<svg width="131px" height="56px" viewBox="0 0 131 56" version="1.1" xmlns="http://www.w3.org/2000/svg" xmlns:xlink="http://www.w3.org/1999/xlink">
    <title>eikon_full</title>
    <g id="Page-1" stroke="none" stroke-width="1" fill="none" fill-rule="evenodd">
        <g id="maquette" transform="translate(-165.000000, -4818.000000)" fill="#FFFFFF">
            <g id="footer" transform="translate(0.500000, 4473.745671)">
                <g id="partenaires" transform="translate(165.000000, 258.292308)">
                    <g id="eikon_full" transform="translate(0.000000, 86.677054)">
                        <polygon id="Path" points="0.741348442 30.9688725 0.741348442 36.0816204 3.69715581 36.0816204 3.69715581 35.3626402 1.5402153 35.3626402 1.5402153 33.9246799 3.61726912 33.9246799 3.61726912 33.2056997 1.5402153 33.2056997 1.5402153 31.7677394 3.61726912 31.7677394 3.61726912 31.0487592"></polygon>
                        <g id="Group">
                            <path d="M7.03002833,33.8719547 C6.95014164,33.4725212 6.79036827,33.2328612 6.23116147,33.2328612 C5.59206799,33.2328612 5.35240793,33.7121813 5.35240793,34.2713881 C5.35240793,34.8305949 5.59206799,35.309915 6.31104816,35.309915 C6.79036827,35.309915 6.95014164,35.070255 7.03002833,34.7507082 L7.82889518,34.7507082 C7.7490085,35.4696884 7.1898017,36.0288952 6.23116147,36.0288952 C5.11274788,36.0288952 4.55354108,35.1501416 4.55354108,34.2713881 C4.55354108,33.3926346 5.11274788,32.513881 6.23116147,32.513881 C7.34957507,32.513881 7.7490085,33.1529745 7.82889518,33.8719547 C7.82889518,33.8719547 7.03002833,33.8719547 7.03002833,33.8719547 Z M11.2640227,34.3512748 C11.2640227,33.792068 10.8645892,33.3127479 10.2254958,33.3127479 C9.66628895,33.3127479 9.26685552,33.792068 9.26685552,34.3512748 C9.26685552,34.9104816 9.66628895,35.3898017 10.2254958,35.3898017 C10.8645892,35.3898017 11.2640227,34.9104816 11.2640227,34.3512748 M8.46798867,34.3512748 C8.46798867,33.3926346 9.18696884,32.5937677 10.2254958,32.5937677 C11.3439093,32.5937677 11.9830028,33.3926346 11.9830028,34.3512748 C11.9830028,35.309915 11.2640227,36.1087819 10.2254958,36.1087819 C9.18696884,36.1087819 8.46798867,35.309915 8.46798867,34.3512748" id="Shape"></path>
                            <path d="M12.9416431,36.0288952 L13.7405099,36.0288952 L13.7405099,30.9161473 L12.9416431,30.9161473 L12.9416431,36.0288952 Z M15.4181303,33.9518414 L17.0957507,33.9518414 C17.0957507,33.4725212 16.776204,33.1529745 16.2968839,33.1529745 C15.8175637,33.1529745 15.4181303,33.3926346 15.4181303,33.9518414 Z M15.4181303,34.5909348 C15.4181303,35.070255 15.6577904,35.4696884 16.2968839,35.4696884 C16.776204,35.4696884 16.9359773,35.2300283 17.015864,34.9903683 L17.8147309,34.9903683 C17.7348442,35.5495751 17.1756374,36.1087819 16.2968839,36.1087819 C15.1784703,36.1087819 14.6192635,35.309915 14.6192635,34.3512748 C14.6192635,33.3127479 15.2583569,32.5937677 16.2968839,32.5937677 C17.1756374,32.5937677 17.8946176,33.2328612 17.8946176,34.1116147 C17.8946176,34.1915014 17.8946176,34.3512748 17.8946176,34.5909348 C17.8147309,34.5909348 15.4181303,34.5909348 15.4181303,34.5909348 Z M21.1699717,34.3512748 C21.1699717,34.9104816 21.5694051,35.3898017 22.2084986,35.3898017 C22.7677054,35.3898017 23.1671388,34.9104816 23.1671388,34.3512748 C23.1671388,33.792068 22.7677054,33.3127479 22.2084986,33.3127479 C21.5694051,33.2328612 21.1699717,33.7121813 21.1699717,34.3512748 Z M21.1699717,33.0730878 C21.4096317,32.7535411 21.8090652,32.513881 22.2084986,32.513881 C23.2470255,32.513881 23.9660057,33.3127479 23.9660057,34.2713881 C23.9660057,35.2300283 23.2470255,36.0288952 22.2084986,36.0288952 C21.8090652,36.0288952 21.4096317,35.7892351 21.1699717,35.4696884 L21.1699717,37.6266289 L20.3711048,37.6266289 L20.3711048,32.513881 L21.1699717,32.513881 L21.1699717,33.0730878 L21.1699717,33.0730878 Z M27.0016997,33.3926346 C26.921813,33.3926346 26.7620397,33.3926346 26.682153,33.3926346 C26.0430595,33.3926346 25.6436261,33.792068 25.6436261,34.5909348 L25.6436261,36.0288952 L24.8447592,36.0288952 L24.8447592,32.6736544 L25.6436261,32.6736544 L25.6436261,33.2328612 C25.8033994,32.9133144 26.2028329,32.6736544 26.682153,32.6736544 C26.8419263,32.6736544 26.921813,32.6736544 27.0016997,32.7535411 L27.0016997,33.3926346 L27.0016997,33.3926346 Z M30.1971671,34.3512748 C30.1971671,33.792068 29.7977337,33.3127479 29.1586402,33.3127479 C28.5994334,33.3127479 28.2,33.792068 28.2,34.3512748 C28.2,34.9104816 28.5994334,35.3898017 29.1586402,35.3898017 C29.7977337,35.3898017 30.1971671,34.9104816 30.1971671,34.3512748 M27.4810198,34.3512748 C27.4810198,33.3926346 28.2,32.5937677 29.2385269,32.5937677 C30.3569405,32.5937677 30.996034,33.3926346 30.996034,34.3512748 C30.996034,35.309915 30.2770538,36.1087819 29.2385269,36.1087819 C28.1201133,36.1087819 27.4810198,35.309915 27.4810198,34.3512748 M33.8719547,31.6351275 C33.792068,31.6351275 33.6322946,31.5552408 33.5524079,31.5552408 C33.3127479,31.5552408 32.9932011,31.5552408 32.9932011,32.1144476 L32.9932011,32.5937677 L33.8719547,32.5937677 L33.8719547,33.2328612 L32.9932011,33.2328612 L32.9932011,35.9490085 L32.1943343,35.9490085 L32.1943343,33.2328612 L31.4753541,33.2328612 L31.4753541,32.5937677 L32.1943343,32.5937677 L32.1943343,32.1943343 C32.1943343,30.9161473 32.9932011,30.8362606 33.3926346,30.8362606 C33.6322946,30.8362606 33.792068,30.9161473 33.8719547,30.9161473 C33.8719547,30.996034 33.8719547,31.6351275 33.8719547,31.6351275 Z M35.1501416,33.9518414 L36.827762,33.9518414 C36.827762,33.4725212 36.5082153,33.1529745 36.0288952,33.1529745 C35.5495751,33.1529745 35.1501416,33.3926346 35.1501416,33.9518414 Z M35.1501416,34.5909348 C35.1501416,35.070255 35.3898017,35.4696884 36.0288952,35.4696884 C36.5082153,35.4696884 36.6679887,35.2300283 36.7478754,34.9903683 L37.5467422,34.9903683 C37.4668555,35.5495751 36.9076487,36.1087819 36.0288952,36.1087819 C34.9104816,36.1087819 34.3512748,35.309915 34.3512748,34.3512748 C34.3512748,33.3127479 34.9903683,32.5937677 36.0288952,32.5937677 C36.9076487,32.5937677 37.6266289,33.2328612 37.6266289,34.1116147 C37.6266289,34.1915014 37.6266289,34.3512748 37.6266289,34.5909348 L35.1501416,34.5909348 L35.1501416,34.5909348 Z M40.9818697,35.070255 C40.9818697,35.7892351 40.3427762,36.1087819 39.623796,36.1087819 C38.9048159,36.1087819 38.2657224,35.7093484 38.2657224,34.9104816 L39.0645892,34.9104816 C39.0645892,35.3898017 39.3042493,35.5495751 39.7036827,35.5495751 C40.0232295,35.5495751 40.2628895,35.4696884 40.2628895,35.1501416 C40.2628895,34.8305949 39.9433428,34.8305949 39.2243626,34.5110482 C38.7450425,34.3512748 38.4254958,34.1915014 38.4254958,33.5524079 C38.4254958,32.9133144 38.9847025,32.5937677 39.7036827,32.5937677 C40.4226629,32.5937677 40.9818697,33.0730878 40.9818697,33.7121813 L40.1830028,33.7121813 C40.1830028,33.3926346 40.0232295,33.1529745 39.623796,33.1529745 C39.384136,33.1529745 39.1444759,33.3127479 39.1444759,33.5524079 C39.1444759,33.8719547 39.4640227,33.8719547 40.1031161,34.1116147 C40.5824363,34.2713881 40.9818697,34.4311615 40.9818697,35.070255 M44.4169972,35.070255 C44.4169972,35.7892351 43.7779037,36.1087819 43.0589235,36.1087819 C42.3399433,36.1087819 41.7008499,35.7093484 41.7008499,34.9104816 L42.4997167,34.9104816 C42.4997167,35.3898017 42.7393768,35.5495751 43.1388102,35.5495751 C43.4583569,35.5495751 43.698017,35.4696884 43.698017,35.1501416 C43.698017,34.8305949 43.3784703,34.8305949 42.6594901,34.5110482 C42.18017,34.3512748 41.8606232,34.1915014 41.8606232,33.5524079 C41.8606232,32.9133144 42.41983,32.5937677 43.1388102,32.5937677 C43.8577904,32.5937677 44.4169972,33.0730878 44.4169972,33.7121813 L43.6181303,33.7121813 C43.6181303,33.3926346 43.4583569,33.1529745 43.0589235,33.1529745 C42.8192635,33.1529745 42.5796034,33.3127479 42.5796034,33.5524079 C42.5796034,33.8719547 42.8991501,33.8719547 43.5382436,34.1116147 C44.0175637,34.2713881 44.4169972,34.4311615 44.4169972,35.070255 M45.3756374,36.0288952 L46.1745042,36.0288952 L46.1745042,32.6736544 L45.3756374,32.6736544 L45.3756374,36.0288952 L45.3756374,36.0288952 Z M45.7750708,30.8362606 C46.0946176,30.8362606 46.3342776,31.0759207 46.3342776,31.3954674 C46.3342776,31.7150142 46.0946176,31.9546742 45.7750708,31.9546742 L45.7750708,31.9546742 C45.4555241,31.9546742 45.215864,31.7150142 45.215864,31.3954674 C45.215864,31.0759207 45.4555241,30.8362606 45.7750708,30.8362606 Z M49.7694051,34.3512748 C49.7694051,33.792068 49.3699717,33.3127479 48.7308782,33.3127479 C48.1716714,33.3127479 47.772238,33.792068 47.772238,34.3512748 C47.772238,34.9104816 48.1716714,35.3898017 48.7308782,35.3898017 C49.3699717,35.3898017 49.7694051,34.9104816 49.7694051,34.3512748 M46.9733711,34.3512748 C46.9733711,33.3926346 47.6923513,32.5937677 48.7308782,32.5937677 C49.8492918,32.5937677 50.4883853,33.3926346 50.4883853,34.3512748 C50.4883853,35.309915 49.7694051,36.1087819 48.7308782,36.1087819 C47.6923513,36.1087819 46.9733711,35.309915 46.9733711,34.3512748 M51.4470255,32.5937677 L52.2458924,32.5937677 L52.2458924,33.0730878 C52.4855524,32.6736544 52.8849858,32.513881 53.3643059,32.513881 C53.8436261,32.513881 54.1631728,32.6736544 54.4028329,32.9932011 C54.5626062,33.2328612 54.6424929,33.5524079 54.6424929,34.031728 L54.6424929,36.0288952 L53.8436261,36.0288952 L53.8436261,34.2713881 C53.8436261,33.7121813 53.6838527,33.2328612 53.1246459,33.2328612 C52.5654391,33.2328612 52.325779,33.7121813 52.325779,34.2713881 L52.325779,36.0288952 L51.5269122,36.0288952 L51.5269122,32.5937677 L51.4470255,32.5937677 Z M55.6810198,32.5937677 L56.4798867,32.5937677 L56.4798867,33.0730878 C56.7195467,32.6736544 57.1189802,32.513881 57.5983003,32.513881 C58.0776204,32.513881 58.3971671,32.6736544 58.6368272,32.9932011 C58.7966006,33.2328612 58.8764873,33.5524079 58.8764873,34.031728 L58.8764873,36.0288952 L58.0776204,36.0288952 L58.0776204,34.2713881 C58.0776204,33.7121813 57.917847,33.2328612 57.3586402,33.2328612 C56.7994334,33.2328612 56.5597734,33.7121813 56.5597734,34.2713881 L56.5597734,36.0288952 L55.7609065,36.0288952 L55.7609065,32.5937677 L55.6810198,32.5937677 Z M60.474221,33.9518414 L62.1518414,33.9518414 C62.1518414,33.4725212 61.8322946,33.1529745 61.3529745,33.1529745 C60.8736544,33.1529745 60.474221,33.3926346 60.474221,33.9518414 Z M60.474221,34.5909348 C60.474221,35.070255 60.713881,35.4696884 61.3529745,35.4696884 C61.8322946,35.4696884 61.992068,35.2300283 62.0719547,34.9903683 L62.8708215,34.9903683 C62.7909348,35.5495751 62.231728,36.1087819 61.3529745,36.1087819 C60.2345609,36.1087819 59.6753541,35.309915 59.6753541,34.3512748 C59.6753541,33.3127479 60.3144476,32.5937677 61.3529745,32.5937677 C62.231728,32.5937677 62.9507082,33.2328612 62.9507082,34.1116147 C62.9507082,34.1915014 62.9507082,34.3512748 62.9507082,34.5909348 L60.474221,34.5909348 L60.474221,34.5909348 Z M63.8294618,36.0288952 L64.6283286,36.0288952 L64.6283286,30.9161473 L63.8294618,30.9161473 L63.8294618,36.0288952 Z M65.7467422,36.0288952 L66.5456091,36.0288952 L66.5456091,30.9161473 L65.7467422,30.9161473 L65.7467422,36.0288952 Z M68.2232295,33.9518414 L69.9008499,33.9518414 C69.9008499,33.4725212 69.5813031,33.1529745 69.101983,33.1529745 C68.6226629,33.1529745 68.2232295,33.3926346 68.2232295,33.9518414 Z M68.2232295,34.5909348 C68.2232295,35.070255 68.4628895,35.4696884 69.101983,35.4696884 C69.5813031,35.4696884 69.7410765,35.2300283 69.8209632,34.9903683 L70.61983,34.9903683 C70.5399433,35.5495751 69.9807365,36.1087819 69.101983,36.1087819 C67.9835694,36.1087819 67.4243626,35.309915 67.4243626,34.3512748 C67.4243626,33.3127479 68.0634561,32.5937677 69.101983,32.5937677 C69.9807365,32.5937677 70.6997167,33.2328612 70.6997167,34.1116147 C70.6997167,34.1915014 70.6997167,34.3512748 70.6997167,34.5909348 L68.2232295,34.5909348 L68.2232295,34.5909348 Z M73.7354108,33.9518414 L75.4130312,33.9518414 C75.4130312,33.4725212 75.0934844,33.1529745 74.6141643,33.1529745 C74.1348442,33.1529745 73.7354108,33.3926346 73.7354108,33.9518414 Z M73.7354108,34.5909348 C73.7354108,35.070255 73.9750708,35.4696884 74.6141643,35.4696884 C75.0934844,35.4696884 75.2532578,35.2300283 75.3331445,34.9903683 L76.1320113,34.9903683 C76.0521246,35.5495751 75.4929178,36.1087819 74.6141643,36.1087819 C73.4957507,36.1087819 72.9365439,35.309915 72.9365439,34.3512748 C72.9365439,33.3127479 73.5756374,32.5937677 74.6141643,32.5937677 C75.4929178,32.5937677 76.211898,33.2328612 76.211898,34.1116147 C76.211898,34.1915014 76.211898,34.3512748 76.211898,34.5909348 L73.7354108,34.5909348 L73.7354108,34.5909348 Z M77.1705382,32.5937677 L77.9694051,32.5937677 L77.9694051,33.0730878 C78.2090652,32.6736544 78.6084986,32.513881 79.0878187,32.513881 C79.5671388,32.513881 79.8866856,32.6736544 80.1263456,32.9932011 C80.286119,33.2328612 80.3660057,33.5524079 80.3660057,34.031728 L80.3660057,36.0288952 L79.5671388,36.0288952 L79.5671388,34.2713881 C79.5671388,33.7121813 79.4073654,33.2328612 78.8481586,33.2328612 C78.2889518,33.2328612 78.0492918,33.7121813 78.0492918,34.2713881 L78.0492918,36.0288952 L77.2504249,36.0288952 L77.2504249,32.5937677 L77.1705382,32.5937677 Z M85.4787535,34.3512748 C85.4787535,33.792068 85.0793201,33.3127479 84.4402266,33.3127479 C83.8810198,33.3127479 83.4815864,33.792068 83.4815864,34.3512748 C83.4815864,34.9104816 83.8810198,35.3898017 84.4402266,35.3898017 C85.0793201,35.3898017 85.4787535,34.9104816 85.4787535,34.3512748 Z M86.2776204,32.6736544 L86.2776204,36.0288952 L85.4787535,36.0288952 L85.4787535,35.5495751 C85.2390935,35.8691218 84.8396601,36.1087819 84.4402266,36.1087819 C83.4016997,36.1087819 82.6827195,35.309915 82.6827195,34.3512748 C82.6827195,33.3926346 83.4016997,32.5937677 84.4402266,32.5937677 C84.8396601,32.5937677 85.2390935,32.8334278 85.4787535,33.1529745 L85.4787535,32.6736544 C85.4787535,32.6736544 86.2776204,32.6736544 86.2776204,32.6736544 Z M89.5529745,33.3926346 C89.4730878,33.3926346 89.3133144,33.3926346 89.2334278,33.3926346 C88.5943343,33.3926346 88.1949008,33.792068 88.1949008,34.5909348 L88.1949008,36.0288952 L87.396034,36.0288952 L87.396034,32.6736544 L88.1949008,32.6736544 L88.1949008,33.2328612 C88.3546742,32.9133144 88.7541076,32.6736544 89.2334278,32.6736544 C89.3932011,32.6736544 89.4730878,32.6736544 89.5529745,32.7535411 C89.5529745,32.6736544 89.5529745,33.3926346 89.5529745,33.3926346 Z M92.2691218,36.0288952 C92.1093484,36.0288952 91.8696884,36.1087819 91.709915,36.1087819 C91.3104816,36.1087819 90.5915014,36.0288952 90.5915014,34.9104816 L90.5915014,33.3127479 L90.0322946,33.3127479 L90.0322946,32.6736544 L90.5915014,32.6736544 L90.5915014,31.6351275 L91.3903683,31.6351275 L91.3903683,32.6736544 L92.1892351,32.6736544 L92.1892351,33.3127479 L91.3903683,33.3127479 L91.3903683,34.6708215 C91.3903683,35.2300283 91.5501416,35.309915 91.8696884,35.309915 C92.0294618,35.309915 92.1892351,35.309915 92.2691218,35.309915 L92.2691218,36.0288952 L92.2691218,36.0288952 Z M95.5444759,35.070255 C95.5444759,35.7892351 94.9053824,36.1087819 94.1864023,36.1087819 C93.4674221,36.1087819 92.8283286,35.7093484 92.8283286,34.9104816 L93.6271955,34.9104816 C93.6271955,35.3898017 93.8668555,35.5495751 94.266289,35.5495751 C94.5858357,35.5495751 94.8254958,35.4696884 94.8254958,35.1501416 C94.8254958,34.8305949 94.505949,34.8305949 93.7869688,34.5110482 C93.3076487,34.3512748 92.988102,34.1915014 92.988102,33.5524079 C92.988102,32.9133144 93.5473088,32.5937677 94.266289,32.5937677 C94.9852691,32.5937677 95.5444759,33.0730878 95.5444759,33.7121813 L94.7456091,33.7121813 C94.7456091,33.3926346 94.5858357,33.1529745 94.1864023,33.1529745 C93.9467422,33.1529745 93.7070822,33.3127479 93.7070822,33.5524079 C93.7070822,33.8719547 94.0266289,33.8719547 94.6657224,34.1116147 C95.0651558,34.2713881 95.5444759,34.4311615 95.5444759,35.070255 M100.577337,34.3512748 C100.577337,33.792068 100.177904,33.3127479 99.5388102,33.3127479 C98.9796034,33.3127479 98.58017,33.792068 98.58017,34.3512748 C98.58017,34.9104816 98.9796034,35.3898017 99.5388102,35.3898017 C100.177904,35.3898017 100.577337,34.9104816 100.577337,34.3512748 Z M101.376204,32.6736544 L101.376204,36.0288952 L100.577337,36.0288952 L100.577337,35.5495751 C100.337677,35.8691218 99.9382436,36.1087819 99.5388102,36.1087819 C98.5002833,36.1087819 97.7813031,35.309915 97.7813031,34.3512748 C97.7813031,33.3926346 98.5002833,32.5937677 99.5388102,32.5937677 C99.9382436,32.5937677 100.337677,32.8334278 100.577337,33.1529745 L100.577337,32.6736544 C100.577337,32.6736544 101.376204,32.6736544 101.376204,32.6736544 Z M103.293484,34.3512748 C103.293484,34.9104816 103.692918,35.3898017 104.332011,35.3898017 C104.891218,35.3898017 105.290652,34.9104816 105.290652,34.3512748 C105.290652,33.792068 104.891218,33.3127479 104.332011,33.3127479 C103.692918,33.2328612 103.293484,33.7121813 103.293484,34.3512748 Z M103.293484,33.0730878 C103.533144,32.7535411 103.932578,32.513881 104.332011,32.513881 C105.370538,32.513881 106.089518,33.3127479 106.089518,34.2713881 C106.089518,35.2300283 105.370538,36.0288952 104.332011,36.0288952 C103.932578,36.0288952 103.533144,35.7892351 103.293484,35.4696884 L103.293484,37.6266289 L102.494618,37.6266289 L102.494618,32.513881 L103.293484,32.513881 L103.293484,33.0730878 L103.293484,33.0730878 Z M107.767139,34.3512748 C107.767139,34.9104816 108.166572,35.3898017 108.805666,35.3898017 C109.364873,35.3898017 109.764306,34.9104816 109.764306,34.3512748 C109.764306,33.792068 109.364873,33.3127479 108.805666,33.3127479 C108.166572,33.2328612 107.767139,33.7121813 107.767139,34.3512748 Z M107.767139,33.0730878 C108.006799,32.7535411 108.406232,32.513881 108.805666,32.513881 C109.844193,32.513881 110.563173,33.3127479 110.563173,34.2713881 C110.563173,35.2300283 109.844193,36.0288952 108.805666,36.0288952 C108.406232,36.0288952 108.006799,35.7892351 107.767139,35.4696884 L107.767139,37.6266289 L106.968272,37.6266289 L106.968272,32.513881 L107.767139,32.513881 L107.767139,33.0730878 L107.767139,33.0730878 Z M111.441926,36.0288952 L112.240793,36.0288952 L112.240793,30.9161473 L111.441926,30.9161473 L111.441926,36.0288952 Z M113.359207,36.0288952 L114.158074,36.0288952 L114.158074,32.6736544 L113.359207,32.6736544 L113.359207,36.0288952 L113.359207,36.0288952 Z M113.75864,30.8362606 C114.078187,30.8362606 114.317847,31.0759207 114.317847,31.3954674 C114.317847,31.7150142 114.078187,31.9546742 113.75864,31.9546742 C113.439093,31.9546742 113.199433,31.7150142 113.199433,31.3954674 C113.119547,31.0759207 113.359207,30.8362606 113.75864,30.8362606 L113.75864,30.8362606 Z M115.755807,34.3512748 C115.755807,34.9104816 116.155241,35.3898017 116.714448,35.3898017 C117.353541,35.3898017 117.752975,34.9104816 117.752975,34.3512748 C117.752975,33.792068 117.353541,33.3127479 116.714448,33.3127479 C116.155241,33.2328612 115.755807,33.7121813 115.755807,34.3512748 Z M117.752975,32.6736544 L118.551841,32.6736544 L118.551841,37.7864023 L117.752975,37.7864023 L117.752975,35.6294618 C117.513314,35.9490085 117.113881,36.1886686 116.714448,36.1886686 C115.675921,36.1886686 114.956941,35.3898017 114.956941,34.4311615 C114.956941,33.4725212 115.675921,32.6736544 116.714448,32.6736544 C117.113881,32.6736544 117.513314,32.9133144 117.752975,33.2328612 C117.752975,33.0730878 117.752975,32.6736544 117.752975,32.6736544 Z M122.785836,32.5937677 L122.785836,35.9490085 L121.986969,35.9490085 L121.986969,35.4696884 C121.747309,35.8691218 121.347875,36.0288952 120.868555,36.0288952 C120.389235,36.0288952 120.069688,35.8691218 119.830028,35.5495751 C119.670255,35.309915 119.590368,34.9903683 119.590368,34.5110482 L119.590368,32.513881 L120.389235,32.513881 L120.389235,34.3512748 C120.389235,34.9104816 120.549008,35.3898017 121.108215,35.3898017 C121.667422,35.3898017 121.907082,34.9104816 121.907082,34.3512748 L121.907082,32.5937677 L122.785836,32.5937677 L122.785836,32.5937677 Z M124.463456,33.9518414 L126.141076,33.9518414 C126.141076,33.4725212 125.82153,33.1529745 125.34221,33.1529745 C124.86289,33.1529745 124.463456,33.3926346 124.463456,33.9518414 L124.463456,33.9518414 Z M124.623229,32.4339943 L124.223796,31.7949008 L126.06119,30.8362606 L126.460623,31.4753541 L124.623229,32.4339943 Z M124.463456,34.5909348 C124.463456,35.070255 124.703116,35.4696884 125.34221,35.4696884 C125.82153,35.4696884 125.981303,35.2300283 126.06119,34.9903683 L126.860057,34.9903683 C126.78017,35.5495751 126.220963,36.1087819 125.34221,36.1087819 C124.223796,36.1087819 123.664589,35.309915 123.664589,34.3512748 C123.664589,33.3127479 124.303683,32.5937677 125.34221,32.5937677 C126.220963,32.5937677 126.939943,33.2328612 126.939943,34.1116147 C126.939943,34.1915014 126.939943,34.3512748 126.939943,34.5909348 L124.463456,34.5909348 L124.463456,34.5909348 Z M130.375071,35.070255 C130.375071,35.7892351 129.735977,36.1087819 129.016997,36.1087819 C128.298017,36.1087819 127.658924,35.7093484 127.658924,34.9104816 L128.45779,34.9104816 C128.45779,35.3898017 128.69745,35.5495751 129.096884,35.5495751 C129.416431,35.5495751 129.656091,35.4696884 129.656091,35.1501416 C129.656091,34.8305949 129.336544,34.8305949 128.617564,34.5110482 C128.138244,34.3512748 127.818697,34.1915014 127.818697,33.5524079 C127.818697,32.9133144 128.377904,32.5937677 129.096884,32.5937677 C129.815864,32.5937677 130.375071,33.0730878 130.375071,33.7121813 L129.576204,33.7121813 C129.576204,33.3926346 129.416431,33.1529745 129.016997,33.1529745 C128.777337,33.1529745 128.537677,33.3127479 128.537677,33.5524079 C128.537677,33.8719547 128.857224,33.8719547 129.496317,34.1116147 C129.895751,34.2713881 130.375071,34.4311615 130.375071,35.070255 M1.59773371,42.18017 L1.59773371,43.6181303 L2.55637394,43.6181303 C3.27535411,43.6181303 3.35524079,43.2186969 3.35524079,42.8991501 C3.35524079,42.6594901 3.19546742,42.18017 2.55637394,42.18017 L1.59773371,42.18017 L1.59773371,42.18017 Z M2.47648725,41.3813031 C3.19546742,41.3813031 3.27535411,40.901983 3.27535411,40.6623229 C3.27535411,40.4226629 3.19546742,39.9433428 2.47648725,39.9433428 L1.59773371,39.9433428 L1.59773371,41.3014164 C1.59773371,41.3813031 2.47648725,41.3813031 2.47648725,41.3813031 Z M0.71898017,39.3042493 L2.47648725,39.3042493 C3.83456091,39.3042493 4.07422096,40.1830028 4.07422096,40.6623229 C4.07422096,41.3014164 3.59490085,41.7008499 3.19546742,41.7807365 C3.51501416,41.7807365 4.15410765,42.18017 4.15410765,42.8991501 C4.15410765,43.4583569 3.91444759,44.3371105 2.47648725,44.3371105 L0.71898017,44.3371105 L0.71898017,39.3042493 Z M5.75184136,42.3399433 L7.42946176,42.3399433 C7.42946176,41.8606232 7.10991501,41.5410765 6.6305949,41.5410765 C6.0713881,41.4611898 5.75184136,41.7807365 5.75184136,42.3399433 L5.75184136,42.3399433 Z M5.75184136,42.8991501 C5.75184136,43.3784703 5.99150142,43.7779037 6.6305949,43.7779037 C7.10991501,43.7779037 7.26968839,43.5382436 7.34957507,43.2985836 L8.14844193,43.2985836 C8.06855524,43.8577904 7.50934844,44.4169972 6.6305949,44.4169972 C5.5121813,44.4169972 4.9529745,43.6181303 4.9529745,42.6594901 C4.9529745,41.6209632 5.59206799,40.901983 6.6305949,40.901983 C7.50934844,40.901983 8.22832861,41.5410765 8.22832861,42.41983 C8.22832861,42.4997167 8.22832861,42.6594901 8.22832861,42.8991501 L5.75184136,42.8991501 L5.75184136,42.8991501 Z M11.2640227,41.7008499 C11.184136,41.7008499 11.0243626,41.7008499 10.9444759,41.7008499 C10.3053824,41.7008499 9.90594901,42.1002833 9.90594901,42.8991501 L9.90594901,44.3371105 L9.10708215,44.3371105 L9.10708215,40.9818697 L9.90594901,40.9818697 L9.90594901,41.5410765 C10.0657224,41.2215297 10.4651558,40.9818697 10.9444759,40.9818697 C11.1042493,40.9818697 11.184136,40.9818697 11.2640227,41.0617564 C11.2640227,40.9818697 11.2640227,41.7008499 11.2640227,41.7008499 Z M15.0186969,40.9818697 L15.0186969,44.3371105 L14.21983,44.3371105 L14.21983,43.8577904 C13.98017,44.2572238 13.5807365,44.4169972 13.1014164,44.4169972 C12.6220963,44.4169972 12.3025496,44.2572238 12.0628895,43.9376771 C11.9031161,43.698017 11.8232295,43.3784703 11.8232295,42.8991501 L11.8232295,40.901983 L12.6220963,40.901983 L12.6220963,42.6594901 C12.6220963,43.2186969 12.7818697,43.698017 13.3410765,43.698017 C13.9002833,43.698017 14.1399433,43.2186969 14.1399433,42.6594901 L14.1399433,40.901983 C14.21983,40.9818697 15.0186969,40.9818697 15.0186969,40.9818697 Z M18.1342776,40.0232295 C18.0543909,40.0232295 17.8946176,39.9433428 17.8147309,39.9433428 C17.5750708,39.9433428 17.2555241,39.9433428 17.2555241,40.5025496 L17.2555241,40.9818697 L18.1342776,40.9818697 L18.1342776,41.6209632 L17.2555241,41.6209632 L17.2555241,44.3371105 L16.4566572,44.3371105 L16.4566572,41.6209632 L15.7376771,41.6209632 L15.7376771,40.9818697 L16.4566572,40.9818697 L16.4566572,40.5824363 C16.4566572,39.3042493 17.2555241,39.2243626 17.6549575,39.2243626 C17.8946176,39.2243626 18.0543909,39.3042493 18.1342776,39.3042493 L18.1342776,40.0232295 L18.1342776,40.0232295 Z M21.4096317,43.3784703 C21.4096317,44.0974504 20.7705382,44.4169972 20.0515581,44.4169972 C19.3325779,44.4169972 18.6934844,44.0175637 18.6934844,43.2186969 L19.4923513,43.2186969 C19.4923513,43.698017 19.7320113,43.8577904 20.1314448,43.8577904 C20.4509915,43.8577904 20.6906516,43.7779037 20.6906516,43.4583569 C20.6906516,43.1388102 20.3711048,43.1388102 19.6521246,42.8192635 C19.1728045,42.6594901 18.8532578,42.4997167 18.8532578,41.8606232 C18.8532578,41.2215297 19.4124646,40.901983 20.1314448,40.901983 C20.8504249,40.901983 21.4096317,41.3813031 21.4096317,42.0203966 L20.6107649,42.0203966 C20.6107649,41.7008499 20.4509915,41.4611898 20.0515581,41.4611898 C19.811898,41.4611898 19.572238,41.6209632 19.572238,41.8606232 C19.572238,42.18017 19.8917847,42.18017 20.5308782,42.41983 C20.9303116,42.6594901 21.4096317,42.8192635 21.4096317,43.3784703 M24.2855524,40.0232295 C24.2056657,39.9433428 24.0458924,39.9433428 23.9660057,39.9433428 C23.7263456,39.9433428 23.4067989,39.9433428 23.4067989,40.5025496 L23.4067989,40.9818697 L24.2855524,40.9818697 L24.2855524,41.6209632 L23.4067989,41.6209632 L23.4067989,44.3371105 L22.607932,44.3371105 L22.607932,41.6209632 L21.8889518,41.6209632 L21.8889518,40.9818697 L22.607932,40.9818697 L22.607932,40.5824363 C22.607932,39.3042493 23.4067989,39.2243626 23.8062323,39.2243626 C24.0458924,39.2243626 24.2056657,39.3042493 24.2855524,39.3042493 L24.2855524,40.0232295 L24.2855524,40.0232295 Z M27.5609065,42.6594901 C27.5609065,42.1002833 27.1614731,41.6209632 26.5223796,41.6209632 C25.9631728,41.6209632 25.5637394,42.1002833 25.5637394,42.6594901 C25.5637394,43.2186969 25.9631728,43.698017 26.5223796,43.698017 C27.1614731,43.7779037 27.5609065,43.2186969 27.5609065,42.6594901 L27.5609065,42.6594901 Z M28.3597734,40.9818697 L28.3597734,44.3371105 L27.5609065,44.3371105 L27.5609065,43.9376771 C27.3212465,44.2572238 26.921813,44.4968839 26.5223796,44.4968839 C25.4838527,44.4968839 24.7648725,43.698017 24.7648725,42.7393768 C24.7648725,41.7807365 25.4838527,40.9818697 26.5223796,40.9818697 C26.921813,40.9818697 27.3212465,41.2215297 27.5609065,41.5410765 L27.5609065,41.0617564 L28.3597734,40.9818697 L28.3597734,40.9818697 Z M31.7150142,42.18017 C31.6351275,41.7807365 31.4753541,41.5410765 30.9161473,41.5410765 C30.2770538,41.5410765 30.0373938,42.0203966 30.0373938,42.5796034 C30.0373938,43.1388102 30.2770538,43.6181303 30.996034,43.6181303 C31.4753541,43.6181303 31.6351275,43.3784703 31.7150142,43.0589235 L32.513881,43.0589235 C32.4339943,43.7779037 31.8747875,44.3371105 30.9161473,44.3371105 C29.7977337,44.3371105 29.2385269,43.4583569 29.2385269,42.5796034 C29.2385269,41.7008499 29.7977337,40.8220963 30.9161473,40.8220963 C32.0345609,40.8220963 32.4339943,41.4611898 32.513881,42.18017 L31.7150142,42.18017 L31.7150142,42.18017 Z M33.4725212,39.3042493 L34.2713881,39.3042493 L34.2713881,41.4611898 C34.5110482,41.0617564 34.9104816,40.901983 35.3898017,40.901983 C35.8691218,40.901983 36.1886686,41.0617564 36.4283286,41.3813031 C36.588102,41.6209632 36.6679887,41.9405099 36.6679887,42.41983 L36.6679887,44.4169972 L35.8691218,44.4169972 L35.8691218,42.6594901 C35.8691218,42.1002833 35.7093484,41.6209632 35.1501416,41.6209632 C34.5909348,41.6209632 34.3512748,42.1002833 34.3512748,42.6594901 L34.3512748,44.4169972 L33.5524079,44.4169972 L33.4725212,39.3042493 L33.4725212,39.3042493 Z M40.1031161,43.3784703 C40.1031161,44.0974504 39.4640227,44.4169972 38.7450425,44.4169972 C38.0260623,44.4169972 37.3869688,44.0175637 37.3869688,43.2186969 L38.1858357,43.2186969 C38.1858357,43.698017 38.4254958,43.8577904 38.8249292,43.8577904 C39.1444759,43.8577904 39.384136,43.7779037 39.384136,43.4583569 C39.384136,43.1388102 39.0645892,43.1388102 38.3456091,42.8192635 C37.866289,42.6594901 37.5467422,42.4997167 37.5467422,41.8606232 C37.5467422,41.2215297 38.105949,40.901983 38.8249292,40.901983 C39.5439093,40.901983 40.1031161,41.3813031 40.1031161,42.0203966 L39.3042493,42.0203966 C39.3042493,41.7008499 39.1444759,41.4611898 38.7450425,41.4611898 C38.5053824,41.4611898 38.2657224,41.6209632 38.2657224,41.8606232 C38.2657224,42.18017 38.5852691,42.18017 39.2243626,42.41983 C39.7036827,42.6594901 40.1031161,42.8192635 40.1031161,43.3784703 M43.2985836,42.18017 C43.2186969,41.7807365 43.0589235,41.5410765 42.4997167,41.5410765 C41.8606232,41.5410765 41.6209632,42.0203966 41.6209632,42.5796034 C41.6209632,43.1388102 41.8606232,43.6181303 42.5796034,43.6181303 C43.0589235,43.6181303 43.2186969,43.3784703 43.2985836,43.0589235 L44.0974504,43.0589235 C44.0175637,43.7779037 43.4583569,44.3371105 42.4997167,44.3371105 C41.3813031,44.3371105 40.8220963,43.4583569 40.8220963,42.5796034 C40.8220963,41.7008499 41.3813031,40.8220963 42.4997167,40.8220963 C43.6181303,40.8220963 44.0175637,41.4611898 44.0974504,42.18017 C44.0974504,42.18017 43.2985836,42.18017 43.2985836,42.18017 Z M45.0560907,39.3042493 L45.8549575,39.3042493 L45.8549575,41.4611898 C46.0946176,41.0617564 46.494051,40.901983 46.9733711,40.901983 C47.4526912,40.901983 47.772238,41.0617564 48.011898,41.3813031 C48.1716714,41.6209632 48.2515581,41.9405099 48.2515581,42.41983 L48.2515581,44.4169972 L47.4526912,44.4169972 L47.4526912,42.6594901 C47.4526912,42.1002833 47.2929178,41.6209632 46.733711,41.6209632 C46.1745042,41.6209632 45.9348442,42.1002833 45.9348442,42.6594901 L45.9348442,44.4169972 L45.1359773,44.4169972 L45.0560907,39.3042493 L45.0560907,39.3042493 Z M52.325779,40.9818697 L52.325779,44.3371105 L51.5269122,44.3371105 L51.5269122,43.8577904 C51.2872521,44.2572238 50.8878187,44.4169972 50.4084986,44.4169972 C49.9291785,44.4169972 49.6096317,44.2572238 49.3699717,43.9376771 C49.2101983,43.698017 49.1303116,43.3784703 49.1303116,42.8991501 L49.1303116,40.901983 L49.9291785,40.901983 L49.9291785,42.6594901 C49.9291785,43.2186969 50.0889518,43.698017 50.6481586,43.698017 C51.2073654,43.698017 51.4470255,43.2186969 51.4470255,42.6594901 L51.4470255,40.901983 L52.325779,40.9818697 L52.325779,40.9818697 Z M53.4441926,44.3371105 L54.2430595,44.3371105 L54.2430595,39.2243626 L53.4441926,39.2243626 L53.4441926,44.3371105 Z M55.9206799,42.3399433 L57.5983003,42.3399433 C57.5983003,41.8606232 57.2787535,41.5410765 56.7994334,41.5410765 C56.2402266,41.4611898 55.9206799,41.7807365 55.9206799,42.3399433 L55.9206799,42.3399433 Z M55.9206799,42.8991501 C55.9206799,43.3784703 56.1603399,43.7779037 56.7994334,43.7779037 C57.2787535,43.7779037 57.4385269,43.5382436 57.5184136,43.2985836 L58.3172805,43.2985836 C58.2373938,43.8577904 57.678187,44.4169972 56.7994334,44.4169972 C55.6810198,44.4169972 55.121813,43.6181303 55.121813,42.6594901 C55.121813,41.6209632 55.7609065,40.901983 56.7994334,40.901983 C57.678187,40.901983 58.3971671,41.5410765 58.3971671,42.41983 C58.3971671,42.4997167 58.3971671,42.6594901 58.3971671,42.8991501 L55.9206799,42.8991501 L55.9206799,42.8991501 Z M62.8708215,40.0232295 C62.7909348,40.0232295 62.6311615,39.9433428 62.5512748,39.9433428 C62.3116147,39.9433428 61.992068,39.9433428 61.992068,40.5025496 L61.992068,40.9818697 L62.8708215,40.9818697 L62.8708215,41.6209632 L61.992068,41.6209632 L61.992068,44.3371105 L61.1932011,44.3371105 L61.1932011,41.6209632 L60.474221,41.6209632 L60.474221,40.9818697 L61.1932011,40.9818697 L61.1932011,40.5824363 C61.1932011,39.3042493 61.992068,39.2243626 62.3915014,39.2243626 C62.6311615,39.2243626 62.7909348,39.3042493 62.8708215,39.3042493 L62.8708215,40.0232295 L62.8708215,40.0232295 Z M64.2288952,39.3042493 C64.5484419,39.3042493 64.788102,39.5439093 64.788102,39.8634561 C64.788102,40.1830028 64.5484419,40.4226629 64.2288952,40.4226629 C63.9093484,40.4226629 63.6696884,40.1830028 63.6696884,39.8634561 C63.6696884,39.5439093 63.9093484,39.3042493 64.2288952,39.3042493 Z M66.6254958,44.3371105 L65.8266289,44.3371105 L65.8266289,43.8577904 C65.5869688,44.2572238 65.1875354,44.4169972 64.7082153,44.4169972 C64.2288952,44.4169972 63.9093484,44.2572238 63.6696884,43.9376771 C63.509915,43.698017 63.4300283,43.3784703 63.4300283,42.8991501 L63.4300283,40.901983 L64.2288952,40.901983 L64.2288952,42.6594901 C64.2288952,43.2186969 64.3886686,43.698017 64.9478754,43.698017 C65.5070822,43.698017 65.7467422,43.2186969 65.7467422,42.6594901 L65.7467422,40.901983 L66.5456091,40.901983 L66.5456091,44.3371105 L66.6254958,44.3371105 Z M69.9008499,41.7008499 C69.8209632,41.7008499 69.6611898,41.7008499 69.5813031,41.7008499 C68.9422096,41.7008499 68.5427762,42.1002833 68.5427762,42.8991501 L68.5427762,44.3371105 L67.7439093,44.3371105 L67.7439093,40.9818697 L68.5427762,40.9818697 L68.5427762,41.5410765 C68.7025496,41.2215297 69.101983,40.9818697 69.5813031,40.9818697 C69.7410765,40.9818697 69.8209632,40.9818697 69.9008499,41.0617564 C69.9008499,40.9818697 69.9008499,41.7008499 69.9008499,41.7008499 Z M75.1733711,41.7807365 L77.5699717,41.7807365 L77.5699717,42.4997167 L77.0107649,42.4997167 C76.7711048,43.6181303 75.972238,44.4169972 74.5342776,44.4169972 C72.8566572,44.4169972 71.898017,43.1388102 71.898017,41.7807365 C71.898017,40.4226629 72.9365439,39.1444759 74.5342776,39.1444759 C75.7325779,39.1444759 76.6113314,39.8634561 76.6912181,40.8220963 L75.8923513,40.8220963 C75.8124646,40.3427762 75.2532578,39.9433428 74.5342776,39.9433428 C73.415864,39.9433428 72.7767705,40.901983 72.7767705,41.8606232 C72.7767705,42.8192635 73.415864,43.7779037 74.6141643,43.7779037 C75.4929178,43.7779037 75.972238,43.2186969 76.1320113,42.5796034 L75.1733711,42.5796034 C75.1733711,42.5796034 75.1733711,41.7807365 75.1733711,41.7807365 Z M78.9280453,42.3399433 L80.6056657,42.3399433 C80.6056657,41.8606232 80.286119,41.5410765 79.8067989,41.5410765 C79.3274788,41.4611898 78.9280453,41.7807365 78.9280453,42.3399433 Z M78.9280453,42.8991501 C78.9280453,43.3784703 79.1677054,43.7779037 79.8067989,43.7779037 C80.286119,43.7779037 80.4458924,43.5382436 80.525779,43.2985836 L81.3246459,43.2985836 C81.2447592,43.8577904 80.6855524,44.4169972 79.8067989,44.4169972 C78.6883853,44.4169972 78.1291785,43.6181303 78.1291785,42.6594901 C78.1291785,41.6209632 78.768272,40.901983 79.8067989,40.901983 C80.6855524,40.901983 81.4045326,41.5410765 81.4045326,42.41983 C81.4045326,42.4997167 81.4045326,42.6594901 81.4045326,42.8991501 L78.9280453,42.8991501 L78.9280453,42.8991501 Z M84.8396601,43.3784703 C84.8396601,44.0974504 84.2005666,44.4169972 83.4815864,44.4169972 C82.7626062,44.4169972 82.1235127,44.0175637 82.1235127,43.2186969 L82.9223796,43.2186969 C82.9223796,43.698017 83.1620397,43.8577904 83.5614731,43.8577904 C83.8810198,43.8577904 84.1206799,43.7779037 84.1206799,43.4583569 C84.1206799,43.1388102 83.8011331,43.1388102 83.082153,42.8192635 C82.6028329,42.6594901 82.2832861,42.4997167 82.2832861,41.8606232 C82.2832861,41.2215297 82.8424929,40.901983 83.5614731,40.901983 C84.2804533,40.901983 84.8396601,41.3813031 84.8396601,42.0203966 L84.0407932,42.0203966 C84.0407932,41.7008499 83.8810198,41.4611898 83.4815864,41.4611898 C83.2419263,41.4611898 83.0022663,41.6209632 83.0022663,41.8606232 C83.0022663,42.18017 83.321813,42.18017 83.9609065,42.41983 C84.3603399,42.6594901 84.8396601,42.8192635 84.8396601,43.3784703 M87.6356941,44.3371105 C87.4759207,44.3371105 87.2362606,44.4169972 87.0764873,44.4169972 C86.6770538,44.4169972 85.9580737,44.3371105 85.9580737,43.2186969 L85.9580737,41.6209632 L85.3988669,41.6209632 L85.3988669,40.9818697 L85.9580737,40.9818697 L85.9580737,39.9433428 L86.7569405,39.9433428 L86.7569405,40.9818697 L87.5558074,40.9818697 L87.5558074,41.6209632 L86.7569405,41.6209632 L86.7569405,42.9790368 C86.7569405,43.5382436 86.9167139,43.6181303 87.2362606,43.6181303 C87.396034,43.6181303 87.5558074,43.6181303 87.6356941,43.6181303 C87.6356941,43.698017 87.6356941,44.3371105 87.6356941,44.3371105 Z M90.9110482,42.6594901 C90.9110482,42.1002833 90.5116147,41.6209632 89.8725212,41.6209632 C89.3133144,41.6209632 88.913881,42.1002833 88.913881,42.6594901 C88.913881,43.2186969 89.3133144,43.698017 89.8725212,43.698017 C90.5116147,43.7779037 90.9110482,43.2186969 90.9110482,42.6594901 Z M91.709915,40.9818697 L91.709915,44.3371105 L90.9110482,44.3371105 L90.9110482,43.9376771 C90.6713881,44.2572238 90.2719547,44.4968839 89.8725212,44.4968839 C88.8339943,44.4968839 88.1150142,43.698017 88.1150142,42.7393768 C88.1150142,41.7807365 88.8339943,40.9818697 89.8725212,40.9818697 C90.2719547,40.9818697 90.6713881,41.2215297 90.9110482,41.5410765 L90.9110482,41.0617564 C90.9110482,40.9818697 91.709915,40.9818697 91.709915,40.9818697 Z M92.8283286,44.3371105 L93.6271955,44.3371105 L93.6271955,39.2243626 L92.8283286,39.2243626 L92.8283286,44.3371105 Z M96.6628895,44.3371105 C96.5031161,44.3371105 96.2634561,44.4169972 96.1036827,44.4169972 C95.7042493,44.4169972 94.9852691,44.3371105 94.9852691,43.2186969 L94.9852691,41.6209632 L94.4260623,41.6209632 L94.4260623,40.9818697 L94.9852691,40.9818697 L94.9852691,39.9433428 L95.784136,39.9433428 L95.784136,40.9818697 L96.5830028,40.9818697 L96.5830028,41.6209632 L95.784136,41.6209632 L95.784136,42.9790368 C95.784136,43.5382436 95.9439093,43.6181303 96.2634561,43.6181303 C96.4232295,43.6181303 96.5830028,43.6181303 96.6628895,43.6181303 L96.6628895,44.3371105 L96.6628895,44.3371105 Z M100.417564,40.9818697 L100.417564,44.3371105 L99.6186969,44.3371105 L99.6186969,43.8577904 C99.3790368,44.2572238 98.9796034,44.4169972 98.5002833,44.4169972 C98.0209632,44.4169972 97.7014164,44.2572238 97.4617564,43.9376771 C97.301983,43.698017 97.2220963,43.3784703 97.2220963,42.8991501 L97.2220963,40.901983 L98.0209632,40.901983 L98.0209632,42.6594901 C98.0209632,43.2186969 98.1807365,43.698017 98.7399433,43.698017 C99.2991501,43.698017 99.5388102,43.2186969 99.5388102,42.6594901 L99.5388102,40.901983 C99.6186969,40.9818697 100.417564,40.9818697 100.417564,40.9818697 Z M101.535977,40.9818697 L102.334844,40.9818697 L102.334844,41.4611898 C102.574504,41.0617564 102.973938,40.901983 103.453258,40.901983 C103.932578,40.901983 104.252125,41.0617564 104.491785,41.3813031 C104.651558,41.6209632 104.731445,41.9405099 104.731445,42.41983 L104.731445,44.4169972 L103.932578,44.4169972 L103.932578,42.6594901 C103.932578,42.1002833 103.772805,41.6209632 103.213598,41.6209632 C102.654391,41.6209632 102.414731,42.1002833 102.414731,42.6594901 L102.414731,44.4169972 L101.615864,44.4169972 C101.535977,44.3371105 101.535977,40.9818697 101.535977,40.9818697 Z M106.329178,42.6594901 C106.329178,43.2186969 106.728612,43.698017 107.287819,43.698017 C107.926912,43.698017 108.326346,43.2186969 108.326346,42.6594901 C108.326346,42.1002833 107.926912,41.6209632 107.287819,41.6209632 C106.728612,41.6209632 106.329178,42.1002833 106.329178,42.6594901 Z M109.125212,44.4968839 C109.125212,45.0560907 108.965439,45.4555241 108.645892,45.6951841 C108.326346,45.9348442 107.847025,46.0946176 107.287819,46.0946176 C106.728612,46.0946176 106.329178,45.9348442 106.009632,45.6951841 C105.769972,45.4555241 105.610198,45.1359773 105.530312,44.7365439 L106.329178,44.7365439 C106.409065,45.1359773 106.648725,45.4555241 107.207932,45.4555241 C107.847025,45.4555241 108.246459,45.215864 108.246459,44.5767705 L108.246459,43.9376771 C108.006799,44.2572238 107.607365,44.4968839 107.207932,44.4968839 C106.169405,44.4968839 105.450425,43.698017 105.450425,42.7393768 C105.450425,41.7807365 106.169405,40.9818697 107.207932,40.9818697 C107.607365,40.9818697 108.006799,41.2215297 108.246459,41.5410765 L108.246459,41.0617564 L109.045326,41.0617564 C109.125212,40.9818697 109.125212,44.4968839 109.125212,44.4968839 Z M2.55637394,52.7252125 L1.99716714,52.7252125 L0.239660057,47.6124646 L1.1184136,47.6124646 L2.31671388,51.2872521 L3.51501416,47.6124646 L4.39376771,47.6124646 L2.55637394,52.7252125 Z M7.1898017,51.0475921 C7.1898017,50.4883853 6.79036827,50.0090652 6.15127479,50.0090652 C5.59206799,50.0090652 5.19263456,50.4883853 5.19263456,51.0475921 C5.19263456,51.6067989 5.59206799,52.086119 6.15127479,52.086119 C6.79036827,52.086119 7.1898017,51.6067989 7.1898017,51.0475921 M4.39376771,51.0475921 C4.39376771,50.0889518 5.11274788,49.290085 6.15127479,49.290085 C7.26968839,49.290085 7.90878187,50.0889518 7.90878187,51.0475921 C7.90878187,52.0062323 7.1898017,52.8050992 6.15127479,52.8050992 C5.11274788,52.8050992 4.39376771,51.9263456 4.39376771,51.0475921 M11.184136,50.568272 C11.1042493,50.1688385 10.9444759,49.9291785 10.3852691,49.9291785 C9.74617564,49.9291785 9.50651558,50.4084986 9.50651558,50.9677054 C9.50651558,51.5269122 9.74617564,52.0062323 10.4651558,52.0062323 C10.9444759,52.0062323 11.1042493,51.7665722 11.184136,51.4470255 L11.9830028,51.4470255 C11.9031161,52.1660057 11.3439093,52.7252125 10.3852691,52.7252125 C9.26685552,52.7252125 8.70764873,51.8464589 8.70764873,50.9677054 C8.70764873,50.0889518 9.26685552,49.2101983 10.3852691,49.2101983 C11.5036827,49.2101983 11.9031161,49.8492918 11.9830028,50.568272 L11.184136,50.568272 L11.184136,50.568272 Z M15.4181303,51.0475921 C15.4181303,50.4883853 15.0186969,50.0090652 14.3796034,50.0090652 C13.8203966,50.0090652 13.4209632,50.4883853 13.4209632,51.0475921 C13.4209632,51.6067989 13.8203966,52.086119 14.3796034,52.086119 C15.0186969,52.086119 15.4181303,51.6067989 15.4181303,51.0475921 Z M16.2169972,49.290085 L16.2169972,52.7252125 L15.4181303,52.7252125 L15.4181303,52.2458924 C15.1784703,52.5654391 14.7790368,52.8050992 14.3796034,52.8050992 C13.3410765,52.8050992 12.6220963,52.0062323 12.6220963,51.0475921 C12.6220963,50.0889518 13.3410765,49.290085 14.3796034,49.290085 C14.7790368,49.290085 15.1784703,49.529745 15.4181303,49.8492918 L15.4181303,49.3699717 L16.2169972,49.290085 L16.2169972,49.290085 Z M19.1728045,52.7252125 C19.0130312,52.7252125 18.7733711,52.8050992 18.6135977,52.8050992 C18.2141643,52.8050992 17.4951841,52.7252125 17.4951841,51.6067989 L17.4951841,50.0090652 L16.9359773,50.0090652 L16.9359773,49.3699717 L17.4951841,49.3699717 L17.4951841,48.3314448 L18.294051,48.3314448 L18.294051,49.3699717 L19.0929178,49.3699717 L19.0929178,50.0090652 L18.294051,50.0090652 L18.294051,51.3671388 C18.294051,51.9263456 18.4538244,52.0062323 18.7733711,52.0062323 C18.9331445,52.0062323 19.0929178,52.0062323 19.1728045,52.0062323 L19.1728045,52.7252125 L19.1728045,52.7252125 Z M19.8917847,52.7252125 L20.6906516,52.7252125 L20.6906516,49.3699717 L19.8917847,49.3699717 L19.8917847,52.7252125 Z M20.2912181,47.5325779 C20.6107649,47.5325779 20.9303116,47.772238 20.9303116,48.0917847 C20.9303116,48.4113314 20.6906516,48.7308782 20.3711048,48.7308782 L20.2912181,48.7308782 C19.9716714,48.7308782 19.7320113,48.4113314 19.7320113,48.0917847 C19.811898,47.772238 20.0515581,47.5325779 20.2912181,47.5325779 L20.2912181,47.5325779 Z M24.3654391,51.0475921 C24.3654391,50.4883853 23.9660057,50.0090652 23.3269122,50.0090652 C22.7677054,50.0090652 22.368272,50.4883853 22.368272,51.0475921 C22.368272,51.6067989 22.7677054,52.086119 23.3269122,52.086119 C23.9660057,52.086119 24.3654391,51.6067989 24.3654391,51.0475921 M21.5694051,51.0475921 C21.5694051,50.0889518 22.2883853,49.290085 23.3269122,49.290085 C24.4453258,49.290085 25.0844193,50.0889518 25.0844193,51.0475921 C25.0844193,52.0062323 24.3654391,52.8050992 23.3269122,52.8050992 C22.2883853,52.8050992 21.5694051,51.9263456 21.5694051,51.0475921 M26.0430595,49.290085 L26.8419263,49.290085 L26.8419263,49.7694051 C27.0815864,49.3699717 27.4810198,49.2101983 27.9603399,49.2101983 C28.4396601,49.2101983 28.7592068,49.3699717 28.9988669,49.6895184 C29.1586402,49.9291785 29.2385269,50.2487252 29.2385269,50.7280453 L29.2385269,52.7252125 L28.4396601,52.7252125 L28.4396601,50.9677054 C28.4396601,50.4084986 28.2798867,49.9291785 27.7206799,49.9291785 C27.1614731,49.9291785 26.921813,50.4084986 26.921813,50.9677054 L26.921813,52.7252125 L26.1229462,52.7252125 C26.0430595,52.7252125 26.0430595,49.290085 26.0430595,49.290085 Z M32.7535411,51.0475921 C32.7535411,50.4883853 32.3541076,50.0090652 31.7150142,50.0090652 C31.1558074,50.0090652 30.7563739,50.4883853 30.7563739,51.0475921 C30.7563739,51.6067989 31.1558074,52.086119 31.7150142,52.086119 C32.3541076,52.086119 32.7535411,51.6067989 32.7535411,51.0475921 Z M33.5524079,49.290085 L33.5524079,52.7252125 L32.7535411,52.7252125 L32.7535411,52.2458924 C32.513881,52.5654391 32.1144476,52.8050992 31.7150142,52.8050992 C30.6764873,52.8050992 29.9575071,52.0062323 29.9575071,51.0475921 C29.9575071,50.0889518 30.6764873,49.290085 31.7150142,49.290085 C32.1144476,49.290085 32.513881,49.529745 32.7535411,49.8492918 L32.7535411,49.3699717 L33.5524079,49.290085 L33.5524079,49.290085 Z M34.6708215,52.7252125 L35.4696884,52.7252125 L35.4696884,47.6124646 L34.6708215,47.6124646 L34.6708215,52.7252125 Z M38.8249292,51.0475921 C38.8249292,51.6866856 39.2243626,52.086119 39.7835694,52.086119 C40.2628895,52.086119 40.5824363,51.7665722 40.5824363,51.3671388 C40.5824363,50.8878187 40.1031161,50.6481586 39.7835694,50.568272 C38.8249292,50.2487252 38.105949,49.9291785 38.105949,48.9705382 C38.105949,48.0917847 38.8249292,47.6124646 39.7036827,47.6124646 C40.5824363,47.6124646 41.3014164,48.2515581 41.3014164,49.2101983 L40.5025496,49.2101983 C40.5025496,48.7308782 40.1830028,48.3314448 39.7036827,48.3314448 C39.3042493,48.3314448 38.9048159,48.5711048 38.9048159,48.9705382 C38.9048159,49.3699717 39.3042493,49.6096317 39.623796,49.6895184 C40.4226629,50.0090652 41.3813031,50.3286119 41.3813031,51.2872521 C41.3813031,52.325779 40.5824363,52.8849858 39.623796,52.8849858 C38.6651558,52.8849858 37.866289,52.2458924 37.866289,51.1274788 C38.0260623,51.0475921 38.8249292,51.0475921 38.8249292,51.0475921 Z M44.7365439,50.568272 C44.6566572,50.1688385 44.4968839,49.9291785 43.9376771,49.9291785 C43.2985836,49.9291785 43.0589235,50.4084986 43.0589235,50.9677054 C43.0589235,51.5269122 43.2985836,52.0062323 44.0175637,52.0062323 C44.4968839,52.0062323 44.6566572,51.7665722 44.7365439,51.4470255 L45.5354108,51.4470255 C45.4555241,52.1660057 44.8963173,52.7252125 43.9376771,52.7252125 C42.8192635,52.7252125 42.2600567,51.8464589 42.2600567,50.9677054 C42.2600567,50.0889518 42.8192635,49.2101983 43.9376771,49.2101983 C45.0560907,49.2101983 45.4555241,49.8492918 45.5354108,50.568272 L44.7365439,50.568272 L44.7365439,50.568272 Z M46.4141643,47.6124646 L47.2130312,47.6124646 L47.2130312,49.7694051 C47.4526912,49.3699717 47.8521246,49.2101983 48.3314448,49.2101983 C48.8107649,49.2101983 49.1303116,49.3699717 49.3699717,49.6895184 C49.529745,49.9291785 49.6096317,50.2487252 49.6096317,50.7280453 L49.6096317,52.7252125 L48.8107649,52.7252125 L48.8107649,50.9677054 C48.8107649,50.4084986 48.6509915,49.9291785 48.0917847,49.9291785 C47.5325779,49.9291785 47.2929178,50.4084986 47.2929178,50.9677054 L47.2929178,52.7252125 L46.494051,52.7252125 L46.4141643,47.6124646 L46.4141643,47.6124646 Z M53.1246459,51.0475921 C53.1246459,50.4883853 52.7252125,50.0090652 52.086119,50.0090652 C51.5269122,50.0090652 51.1274788,50.4883853 51.1274788,51.0475921 C51.1274788,51.6067989 51.5269122,52.086119 52.086119,52.086119 C52.8050992,52.086119 53.1246459,51.6067989 53.1246459,51.0475921 M50.4084986,51.0475921 C50.4084986,50.0889518 51.1274788,49.290085 52.1660057,49.290085 C53.2844193,49.290085 53.9235127,50.0889518 53.9235127,51.0475921 C53.9235127,52.0062323 53.2045326,52.8050992 52.1660057,52.8050992 C51.0475921,52.8050992 50.4084986,51.9263456 50.4084986,51.0475921 M57.3586402,51.0475921 C57.3586402,50.4883853 56.9592068,50.0090652 56.3201133,50.0090652 C55.7609065,50.0090652 55.3614731,50.4883853 55.3614731,51.0475921 C55.3614731,51.6067989 55.7609065,52.086119 56.3201133,52.086119 C57.0390935,52.086119 57.3586402,51.6067989 57.3586402,51.0475921 M54.6424929,51.0475921 C54.6424929,50.0889518 55.3614731,49.290085 56.4,49.290085 C57.5184136,49.290085 58.1575071,50.0889518 58.1575071,51.0475921 C58.1575071,52.0062323 57.4385269,52.8050992 56.4,52.8050992 C55.2815864,52.8050992 54.6424929,51.9263456 54.6424929,51.0475921 M59.1161473,52.7252125 L59.9150142,52.7252125 L59.9150142,47.6124646 L59.1161473,47.6124646 L59.1161473,52.7252125 Z M65.1076487,51.0475921 C65.1076487,50.4883853 64.7082153,50.0090652 64.0691218,50.0090652 C63.509915,50.0090652 63.1104816,50.4883853 63.1104816,51.0475921 C63.1104816,51.6067989 63.509915,52.086119 64.0691218,52.086119 C64.7082153,52.086119 65.1076487,51.6067989 65.1076487,51.0475921 M62.3915014,51.0475921 C62.3915014,50.0889518 63.1104816,49.290085 64.1490085,49.290085 C65.2674221,49.290085 65.9065156,50.0889518 65.9065156,51.0475921 C65.9065156,52.0062323 65.1875354,52.8050992 64.1490085,52.8050992 C63.0305949,52.8050992 62.3915014,51.9263456 62.3915014,51.0475921 M68.7824363,48.3314448 C68.7025496,48.3314448 68.5427762,48.2515581 68.4628895,48.2515581 C68.2232295,48.2515581 67.9036827,48.2515581 67.9036827,48.8107649 L67.9036827,49.290085 L68.7824363,49.290085 L68.7824363,49.9291785 L67.9036827,49.9291785 L67.9036827,52.7252125 L67.1048159,52.7252125 L67.1048159,50.0090652 L66.3858357,50.0090652 L66.3858357,49.3699717 L67.1048159,49.3699717 L67.1048159,48.9705382 C67.1048159,47.6923513 67.9036827,47.6124646 68.3031161,47.6124646 C68.5427762,47.6124646 68.7025496,47.6923513 68.7824363,47.6923513 C68.7824363,47.6923513 68.7824363,48.3314448 68.7824363,48.3314448 Z M72.6169972,48.9705382 L71.898017,51.2872521 L73.3359773,51.2872521 L72.6169972,48.9705382 Z M73.8152975,52.7252125 L73.5756374,52.086119 L71.6583569,52.086119 L71.4186969,52.7252125 L70.5399433,52.7252125 L72.2974504,47.6124646 L72.8566572,47.6124646 L74.6141643,52.7252125 L73.8152975,52.7252125 Z M76.1320113,51.0475921 C76.1320113,51.6067989 76.5314448,52.086119 77.1705382,52.086119 C77.729745,52.086119 78.1291785,51.6067989 78.1291785,51.0475921 C78.1291785,50.4883853 77.729745,50.0090652 77.1705382,50.0090652 C76.5314448,49.9291785 76.1320113,50.4084986 76.1320113,51.0475921 L76.1320113,51.0475921 Z M76.1320113,49.7694051 C76.3716714,49.4498584 76.7711048,49.2101983 77.1705382,49.2101983 C78.2090652,49.2101983 78.9280453,50.0090652 78.9280453,50.9677054 C78.9280453,51.9263456 78.2090652,52.7252125 77.1705382,52.7252125 C76.7711048,52.7252125 76.3716714,52.4855524 76.1320113,52.1660057 L76.1320113,54.3229462 L75.3331445,54.3229462 L75.3331445,49.2101983 L76.1320113,49.2101983 L76.1320113,49.7694051 L76.1320113,49.7694051 Z M80.6056657,51.0475921 C80.6056657,51.6067989 81.0050992,52.086119 81.6441926,52.086119 C82.2033994,52.086119 82.6028329,51.6067989 82.6028329,51.0475921 C82.6028329,50.4883853 82.2033994,50.0090652 81.6441926,50.0090652 C81.0050992,49.9291785 80.6056657,50.4084986 80.6056657,51.0475921 Z M80.6056657,49.7694051 C80.8453258,49.4498584 81.2447592,49.2101983 81.6441926,49.2101983 C82.6827195,49.2101983 83.4016997,50.0090652 83.4016997,50.9677054 C83.4016997,51.9263456 82.6827195,52.7252125 81.6441926,52.7252125 C81.2447592,52.7252125 80.8453258,52.4855524 80.6056657,52.1660057 L80.6056657,54.3229462 L79.8067989,54.3229462 L79.8067989,49.2101983 L80.6056657,49.2101983 L80.6056657,49.7694051 Z M84.2804533,52.7252125 L85.0793201,52.7252125 L85.0793201,47.6124646 L84.2804533,47.6124646 L84.2804533,52.7252125 Z M86.1977337,52.7252125 L86.9966006,52.7252125 L86.9966006,49.3699717 L86.1977337,49.3699717 L86.1977337,52.7252125 Z M86.5971671,47.5325779 C86.9167139,47.5325779 87.1563739,47.772238 87.2362606,48.0917847 C87.2362606,48.4113314 86.9966006,48.6509915 86.6770538,48.7308782 C86.6770538,48.7308782 86.6770538,48.7308782 86.5971671,48.7308782 C86.2776204,48.7308782 86.0379603,48.4912181 86.0379603,48.1716714 C85.9580737,47.772238 86.2776204,47.5325779 86.5971671,47.5325779 L86.5971671,47.5325779 L86.5971671,47.5325779 Z M88.674221,50.6481586 L90.3518414,50.6481586 C90.3518414,50.1688385 90.0322946,49.8492918 89.5529745,49.8492918 C88.9937677,49.8492918 88.674221,50.0889518 88.674221,50.6481586 L88.674221,50.6481586 Z M88.674221,51.2872521 C88.674221,51.7665722 88.913881,52.1660057 89.5529745,52.1660057 C90.0322946,52.1660057 90.192068,51.9263456 90.2719547,51.6866856 L91.0708215,51.6866856 C90.9909348,52.2458924 90.431728,52.8050992 89.5529745,52.8050992 C88.4345609,52.8050992 87.8753541,52.0062323 87.8753541,51.0475921 C87.8753541,50.0090652 88.5144476,49.290085 89.5529745,49.290085 C90.431728,49.290085 91.1507082,49.9291785 91.1507082,50.807932 C91.1507082,50.8878187 91.1507082,51.0475921 91.1507082,51.2872521 C91.0708215,51.2872521 88.674221,51.2872521 88.674221,51.2872521 Z M94.5858357,51.0475921 C94.5858357,50.4883853 94.1864023,50.0090652 93.5473088,50.0090652 C92.988102,50.0090652 92.5886686,50.4883853 92.5886686,51.0475921 C92.5886686,51.6067989 92.988102,52.086119 93.5473088,52.086119 C94.1864023,52.086119 94.5858357,51.6067989 94.5858357,51.0475921 L94.5858357,51.0475921 Z M94.5858357,52.2458924 C94.3461756,52.5654391 93.9467422,52.8050992 93.5473088,52.8050992 C92.5087819,52.8050992 91.7898017,52.0062323 91.7898017,51.0475921 C91.7898017,50.0889518 92.5087819,49.290085 93.5473088,49.290085 C93.9467422,49.290085 94.3461756,49.529745 94.5858357,49.8492918 L94.5858357,47.6923513 L95.3847025,47.6923513 L95.3847025,52.7252125 L94.5858357,52.7252125 L94.5858357,52.2458924 L94.5858357,52.2458924 Z M99.6186969,48.9705382 L98.8997167,51.2872521 L100.337677,51.2872521 L99.6186969,48.9705382 Z M100.816997,52.7252125 L100.577337,52.086119 L98.6600567,52.086119 L98.4203966,52.7252125 L97.5416431,52.7252125 L99.2991501,47.6124646 L99.8583569,47.6124646 L101.615864,52.7252125 C101.695751,52.7252125 100.816997,52.7252125 100.816997,52.7252125 Z M104.491785,50.0889518 C104.411898,50.0889518 104.252125,50.0889518 104.172238,50.0889518 C103.533144,50.0889518 103.133711,50.4883853 103.133711,51.2872521 L103.133711,52.7252125 L102.334844,52.7252125 L102.334844,49.3699717 L103.133711,49.3699717 L103.133711,49.9291785 C103.293484,49.6096317 103.692918,49.3699717 104.172238,49.3699717 C104.332011,49.3699717 104.411898,49.3699717 104.491785,49.4498584 C104.491785,49.290085 104.491785,50.0889518 104.491785,50.0889518 Z M107.287819,52.7252125 C107.128045,52.7252125 106.888385,52.8050992 106.728612,52.8050992 C106.329178,52.8050992 105.610198,52.7252125 105.610198,51.6067989 L105.610198,50.0090652 L105.050992,50.0090652 L105.050992,49.3699717 L105.610198,49.3699717 L105.610198,48.3314448 L106.409065,48.3314448 L106.409065,49.3699717 L107.207932,49.3699717 L107.207932,50.0090652 L106.409065,50.0090652 L106.409065,51.3671388 C106.409065,51.9263456 106.568839,52.0062323 106.888385,52.0062323 C107.048159,52.0062323 107.207932,52.0062323 107.287819,52.0062323 L107.287819,52.7252125 L107.287819,52.7252125 Z M110.563173,51.7665722 C110.563173,52.4855524 109.924079,52.8050992 109.205099,52.8050992 C108.486119,52.8050992 107.847025,52.4056657 107.847025,51.6067989 L108.645892,51.6067989 C108.645892,52.086119 108.885552,52.2458924 109.284986,52.2458924 C109.604533,52.2458924 109.844193,52.1660057 109.844193,51.8464589 C109.844193,51.5269122 109.524646,51.5269122 108.805666,51.2073654 C108.326346,51.0475921 108.006799,50.8878187 108.006799,50.2487252 C108.006799,49.6096317 108.566006,49.290085 109.284986,49.290085 C110.003966,49.290085 110.563173,49.7694051 110.563173,50.4084986 L109.764306,50.4084986 C109.764306,50.0889518 109.604533,49.8492918 109.205099,49.8492918 C108.965439,49.8492918 108.725779,50.0090652 108.725779,50.2487252 C108.725779,50.568272 109.045326,50.568272 109.684419,50.807932 C110.083853,50.9677054 110.563173,51.1274788 110.563173,51.7665722 M9.02719547,11.1042493 C9.02719547,9.34674221 7.82889518,8.3082153 6.0713881,8.3082153 C4.39376771,8.3082153 3.03569405,9.26685552 3.03569405,11.1042493 L9.02719547,11.1042493 L9.02719547,11.1042493 Z M6.0713881,5.91161473 C9.26685552,5.91161473 11.8232295,8.3082153 11.8232295,11.423796 C11.8232295,11.8232295 11.8232295,12.3824363 11.6634561,13.2611898 L2.95580737,13.2611898 C2.95580737,15.0186969 3.91444759,16.4566572 6.15127479,16.4566572 C7.82889518,16.4566572 8.38810198,15.7376771 8.78753541,14.8589235 L11.6634561,14.8589235 C11.2640227,16.9359773 9.34674221,18.8532578 6.15127479,18.8532578 C1.99716714,18.8532578 -7.09536301e-16,15.7376771 -7.09536301e-16,12.3824363 C-7.09536301e-16,8.70764873 2.15694051,5.91161473 6.0713881,5.91161473 L6.0713881,5.91161473 Z M14.2997167,18.533711 L17.1756374,18.533711 L17.1756374,6.23116147 L14.2997167,6.23116147 L14.2997167,18.533711 L14.2997167,18.533711 Z M15.7376771,0 C16.776204,0 17.6549575,0.878753541 17.6549575,1.91728045 L17.6549575,1.91728045 C17.6549575,2.95580737 16.776204,3.83456091 15.7376771,3.83456091 C14.6991501,3.83456091 13.8203966,2.95580737 13.8203966,1.91728045 C13.8203966,0.878753541 14.6991501,0 15.7376771,0 Z M20.2912181,18.533711 L20.2912181,0.0798866856 L23.1671388,0.0798866856 L23.1671388,11.7433428 L27.7206799,6.31104816 L31.3155807,6.31104816 L26.2028329,12.4623229 L31.3155807,18.6135977 L27.7206799,18.6135977 L23.1671388,13.1014164 L23.1671388,18.533711 L20.2912181,18.533711 Z" id="Shape"></path>
                            <path d="M37.6266289,16.2968839 C39.7835694,16.2968839 41.3014164,14.4594901 41.3014164,12.3824363 C41.3014164,10.3053824 39.8634561,8.46798867 37.6266289,8.46798867 C35.4696884,8.46798867 34.031728,10.3053824 34.031728,12.3824363 C34.031728,14.5393768 35.4696884,16.2968839 37.6266289,16.2968839 M37.6266289,5.91161473 C41.5410765,5.91161473 44.1773371,8.8674221 44.1773371,12.3824363 C44.1773371,15.8974504 41.6209632,18.8532578 37.6266289,18.8532578 C33.7121813,18.8532578 31.1558074,15.8974504 31.1558074,12.3824363 C31.1558074,8.94730878 33.7121813,5.91161473 37.6266289,5.91161473 M46.2543909,18.533711 L46.2543909,6.23116147 L49.1303116,6.23116147 L49.1303116,7.98866856 C49.9291785,6.6305949 51.2872521,5.91161473 53.1246459,5.91161473 C54.882153,5.91161473 56.0804533,6.55070822 56.7994334,7.58923513 C57.4385269,8.54787535 57.5983003,9.50651558 57.5983003,11.2640227 L57.5983003,18.6135977 L54.7223796,18.6135977 L54.7223796,12.2226629 C54.7223796,10.1456091 54.0832861,8.46798867 52.086119,8.46798867 C50.0889518,8.46798867 49.1303116,10.0657224 49.1303116,12.2226629 L49.1303116,18.6135977 C49.2101983,18.533711 46.2543909,18.533711 46.2543909,18.533711 Z M25.3240793,20.5308782 L0.399433428,20.5308782 L0.399433428,21.8889518 L25.8832861,21.8889518 L25.3240793,20.5308782 Z M27.1614731,20.5308782 L27.8005666,21.8889518 L57.9977337,21.8889518 L57.9977337,20.5308782 L27.1614731,20.5308782 Z" id="Shape"></path>
                        </g>
                    </g>
                </g>
            </g>
        </g>
    </g>
</svg>