<?xml version="1.0" encoding="UTF-8"?>
<svg width="47px" height="47px" viewBox="0 0 47 47" version="1.1" xmlns="http://www.w3.org/2000/svg" xmlns:xlink="http://www.w3.org/1999/xlink">
    <title>logo-facebook</title>
    <g id="Page-1" stroke="none" stroke-width="1" fill="none" fill-rule="evenodd">
        <g id="maquette" transform="translate(-1021.000000, -4732.000000)" fill="#FFFFFF">
            <g id="footer" transform="translate(0.500000, 4473.745671)">
                <g id="reseaux" transform="translate(1021.493034, 258.292308)">
                    <path d="M2.57552094,0 C1.85676721,0 1.2478323,0.24956036 0.748697989,0.748697658 C0.24956351,1.24783495 0,1.8567755 0,2.57551928 L0,43.4843752 C0,44.1631976 0.24956351,44.7521677 0.748697989,45.251302 C1.2478323,45.7504365 1.85676721,46 2.57552094,46 L24.5572865,46 L24.5572865,28.2109297 L18.5677052,28.2109297 L18.5677052,21.2630234 L24.5572865,21.2630234 L24.5572865,16.171876 C24.5572865,13.1770688 25.3858501,10.8910595 27.0429607,9.3137982 C28.7000879,7.73653694 30.8662984,6.94792288 33.541675,6.94792288 C34.4201506,6.94792288 35.3085888,6.97786018 36.2070393,7.03776793 C37.1054732,7.0976591 37.9939114,7.16752937 38.8724036,7.24739532 L38.8724036,13.4166667 L35.2187438,13.4166667 C33.7812396,13.4166667 32.8428894,13.7361139 32.4036432,14.3750083 C31.9644137,15.0138861 31.7447906,15.8324541 31.7447906,16.8307286 L31.7447906,21.2630234 L38.6328058,21.2630234 L37.7343719,28.2109297 L31.7447906,28.2109297 L31.7447906,46 L43.4244807,46 C44.1432245,46 44.752165,45.7504365 45.2513023,45.251302 C45.7504396,44.7521677 46,44.1631976 46,43.4843752 L46,2.57551928 C46,1.8567755 45.7504396,1.24783495 45.2513023,0.748697658 C44.752165,0.24956036 44.1432245,0 43.4244807,0 L2.57552094,0 Z" id="logo-facebook"></path>
                </g>
            </g>
        </g>
    </g>
</svg>